<?xml version="1.0" encoding="UTF-8"?>
<svg version="1.1" xmlns="http://www.w3.org/2000/svg" width="1278" height="195">
<path d="M0 0 C16.891875 -0.0825 33.78375 -0.165 51.1875 -0.25 C56.4986792 -0.28641602 61.8098584 -0.32283203 67.28198242 -0.36035156 C73.8248291 -0.37841797 73.8248291 -0.37841797 76.89888 -0.3817749 C79.02167628 -0.38787142 81.1444597 -0.40184356 83.26716614 -0.42230225 C99.13230521 -0.56741534 113.95779772 -0.38463024 127 10 C137.5754207 20.5940394 141.8576135 33.37588407 142.25 48.125 C141.91286628 61.29428593 137.32725348 72.40429111 128.1875 81.87890625 C120.31791785 89.22490733 111.35380447 92.57886321 101 95 C101 95.66 101 96.32 101 97 C102.81319283 98.64288946 102.81319283 98.64288946 105.125 100.3125 C111.28414285 104.92667268 116.50741316 109.14391641 121 115.4375 C121.46148438 116.07582764 121.92296875 116.71415527 122.3984375 117.37182617 C129.00264673 126.64589182 134.98984224 136.33566632 141 146 C141.54849609 146.87849609 142.09699219 147.75699219 142.66210938 148.66210938 C144.19754708 151.12516839 145.72574851 153.59250578 147.25 156.0625 C147.70375 156.79380127 148.1575 157.52510254 148.625 158.27856445 C149.25148438 159.30276489 149.25148438 159.30276489 149.890625 160.34765625 C150.43251465 161.22949585 150.43251465 161.22949585 150.98535156 162.12915039 C152.19121511 164.35257011 153.09779759 166.6392032 154 169 C148.1286176 169.19822873 142.25919392 169.34314324 136.38525391 169.43945312 C134.38881495 169.47960859 132.39261017 169.53414767 130.39697266 169.60351562 C127.52187361 169.70092805 124.64988927 169.7460019 121.7734375 169.78125 C120.88570648 169.82254028 119.99797546 169.86383057 119.08334351 169.90637207 C115.33754401 169.90906524 112.97115888 169.89621004 110.14303589 167.28634644 C108.60214731 165.25265445 107.28344811 163.20320793 106 161 C105.22350406 159.85176033 104.44098174 158.70753452 103.6484375 157.5703125 C102.88834294 156.42338411 102.1306026 155.27489269 101.375 154.125 C100.50782426 152.81639846 99.64063621 151.50780507 98.7734375 150.19921875 C97.84875256 148.79961509 96.92428002 147.39987109 96 146 C80.31483303 118.3542828 80.31483303 118.3542828 56 101 C49.4 100.34 42.8 99.68 36 99 C36 122.1 36 145.2 36 169 C24.12 169 12.24 169 0 169 C0 113.23 0 57.46 0 0 Z M36 28 C36 42.19 36 56.38 36 71 C42.67131773 71.04606203 49.34207734 71.08584315 56.01342773 71.10986328 C58.28004838 71.11988328 60.54665623 71.13350297 62.81323242 71.15087891 C66.0825518 71.17530362 69.35169936 71.18652343 72.62109375 71.1953125 C73.62458359 71.20563507 74.62807343 71.21595764 75.66197205 71.22659302 C84.65754824 71.22800806 92.53023566 70.27277482 100 65 C105.4777579 58.08072687 105.62369013 51.59306398 105 43 C103.07196547 37.21589641 98.97885293 32.69070031 93.6875 29.6875 C86.28237123 27.79316473 78.6544509 27.86149488 71.05859375 27.90234375 C69.54616844 27.90446617 69.54616844 27.90446617 68.00318909 27.90663147 C64.81459458 27.91218395 61.62607292 27.92472739 58.4375 27.9375 C56.26237081 27.94252115 54.08724051 27.94708298 51.91210938 27.95117188 C46.60802296 27.9612826 41.30409205 27.980867 36 28 Z " fill="#080808" transform="translate(766,13)"/>
<path d="M0 0 C8.86790603 6.92680516 15.49800605 14.33483772 21.0625 24.125 C21.52527344 24.92679688 21.98804688 25.72859375 22.46484375 26.5546875 C34.66325939 49.17181073 35.06251571 80.0510392 28.42822266 104.45849609 C22.0010357 125.04095963 9.31395406 141.31140287 -9.875 151.4375 C-31.84900257 161.81891854 -61.62931705 162.95426085 -84.58203125 154.8359375 C-104.92018131 146.73533247 -119.32447198 132.12220419 -127.9375 112.125 C-137.08826235 87.85297791 -137.59076788 56.10701892 -127.3046875 32.03515625 C-126.85351562 31.07480469 -126.40234375 30.11445312 -125.9375 29.125 C-125.50695312 28.19558594 -125.07640625 27.26617187 -124.6328125 26.30859375 C-118.83887035 14.8025448 -110.38386581 5.56434204 -99.9375 -1.875 C-99.31746094 -2.34421875 -98.69742188 -2.8134375 -98.05859375 -3.296875 C-71.3743468 -21.97008453 -25.78566684 -18.01759985 0 0 Z M-85.9375 30.125 C-98.28240664 47.67530247 -100.05142608 68.79117614 -96.6875 89.60546875 C-93.6803463 103.717164 -87.6979965 114.59704504 -75.9375 123.125 C-64.52180511 130.19185874 -51.62984044 131.90543856 -38.57421875 128.93359375 C-26.39670773 125.19915704 -17.57495705 118.48425249 -11.56738281 107.27099609 C-11.21514648 106.58344238 -10.86291016 105.89588867 -10.5 105.1875 C-10.16967773 104.54377441 -9.83935547 103.90004883 -9.49902344 103.23681641 C-4.73467108 93.26659842 -4.59785359 83.14113898 -4.625 72.25 C-4.60888672 70.96480469 -4.59277344 69.67960937 -4.57617188 68.35546875 C-4.56807049 52.39574239 -8.58243265 37.8256459 -19.8046875 26.02734375 C-28.82952122 17.977721 -41.21483078 14.76296176 -53.08984375 14.90625 C-66.21325386 15.91435832 -77.06843832 20.33240945 -85.9375 30.125 Z " fill="#070707" transform="translate(1067.9375,24.875)"/>
<path d="M0 0 C1.90372852 -0.04820379 3.80952064 0.0092614 5.71240234 0.08374023 C8.66151909 3.03285698 9.34791172 6.73731179 10.54833984 10.63842773 C10.82385178 11.51506073 11.09936371 12.39169373 11.38322449 13.29489136 C11.97860512 15.19062087 12.57130955 17.08719248 13.16165161 18.98449707 C14.72385787 24.0035385 16.30612838 29.01623899 17.88818359 34.02905273 C18.20824875 35.04443115 18.5283139 36.05980957 18.858078 37.10595703 C22.34844503 48.14953409 26.01427822 59.13243275 29.71582031 70.10668945 C32.04080961 77.00591119 34.33597322 83.91436686 36.55224609 90.84936523 C36.76982071 91.51643494 36.98739532 92.18350464 37.21156311 92.87078857 C38.24952208 96.15618934 38.71240234 98.58904778 38.71240234 102.08374023 C39.37240234 102.08374023 40.03240234 102.08374023 40.71240234 102.08374023 C40.82994873 101.07988281 40.94749512 100.07602539 41.06860352 99.04174805 C41.63277751 95.11914382 42.74545688 91.51489666 44.01318359 87.75561523 C44.24553711 87.06148026 44.47789062 86.36734528 44.71728516 85.6521759 C45.48057596 83.37732457 46.25259932 81.10554613 47.02490234 78.83374023 C47.56399109 77.23354429 48.10263952 75.63319996 48.64086914 74.03271484 C52.88964327 61.42139364 57.198936 48.83005319 61.54150391 36.25073242 C63.71224985 29.95792889 65.86628672 23.66359026 67.91552734 17.32983398 C68.23610107 16.34233154 68.5566748 15.3548291 68.88696289 14.33740234 C69.45646003 12.5712879 70.0185021 10.80274193 70.57104492 9.03125 C72.71924641 2.37090281 72.71924641 2.37090281 75.71240234 0.08374023 C77.78153992 -0.27702332 77.78153992 -0.27702332 80.18383789 -0.25683594 C81.08454514 -0.25660934 81.98525238 -0.25638275 82.91325378 -0.25614929 C84.3665081 -0.23292351 84.3665081 -0.23292351 85.84912109 -0.20922852 C87.34098686 -0.20286125 87.34098686 -0.20286125 88.86299133 -0.19636536 C92.04223609 -0.17956129 95.22084891 -0.14190553 98.39990234 -0.10375977 C100.55419007 -0.08871518 102.70848772 -0.07502638 104.86279297 -0.06274414 C110.14621202 -0.02965221 115.42926204 0.02056431 120.71240234 0.08374023 C122.3221902 4.11243216 121.02516019 6.94766289 119.65966797 10.92553711 C119.42888046 11.607995 119.19809296 12.29045288 118.96031189 12.99359131 C118.18931899 15.26660415 117.40382875 17.53434186 116.61865234 19.80249023 C116.06889524 21.41607784 115.52029322 23.03005939 114.97277832 24.64440918 C113.81484367 28.0559791 112.65211283 31.46586087 111.48632812 34.87475586 C108.91264549 42.41479634 106.40408436 49.97645947 103.89221191 57.53726196 C102.47967482 61.78678359 101.06258335 66.03478616 99.64599609 70.28295898 C99.07419738 71.99828389 98.50242005 73.71361593 97.93066406 75.42895508 C94.49414063 85.73852538 94.49414063 85.73852538 93.63598633 88.31297302 C93.06484782 90.02639872 92.4937215 91.73982849 91.92260742 93.45326233 C90.51151683 97.68671054 89.10022154 101.92009027 87.68847656 106.15332031 C85.18890477 113.64915915 82.69079885 121.1454685 80.20075226 128.64447784 C79.11857656 131.90324699 78.03529742 135.16164888 76.95195007 138.42002869 C76.44903065 139.93372507 75.94665537 141.44760238 75.44490051 142.96168518 C74.74838367 145.06339335 74.04990478 147.16444106 73.35107422 149.26538086 C72.960448 150.44249634 72.56982178 151.61961182 72.1673584 152.83239746 C70.07787584 158.93780976 67.88280164 165.0066222 65.71240234 171.08374023 C49.87240234 171.08374023 34.03240234 171.08374023 17.71240234 171.08374023 C12.08812076 157.58546444 12.08812076 157.58546444 10.45507812 152.88012695 C10.08289658 151.81384064 9.71071503 150.74755432 9.32725525 149.6489563 C8.94130692 148.53173187 8.55535858 147.41450745 8.15771484 146.26342773 C7.51618989 144.4220308 6.87466227 142.58063479 6.23301983 140.73927879 C5.55949132 138.80438479 4.88768213 136.86890201 4.21640015 134.93322754 C2.1133956 128.86963245 0.00001564 122.80965223 -2.11361885 116.74975586 C-2.58665836 115.39347625 -3.05957259 114.03715295 -3.53236198 112.68078613 C-7.82252212 100.37471178 -12.19203917 88.09805118 -16.60009766 75.83374023 C-20.7488076 64.28522874 -24.81542975 52.72313167 -28.63305664 41.05981445 C-31.43877493 32.5153754 -34.51212111 24.07556285 -37.62353516 15.63842773 C-41.28759766 5.62441042 -41.28759766 5.62441042 -41.28759766 1.08374023 C-35.87991733 0.93998403 -30.47220284 0.79761596 -25.06445312 0.65649414 C-23.2275292 0.60836654 -21.3906149 0.55986982 -19.55371094 0.51098633 C-16.90253144 0.44049919 -14.25131932 0.37137099 -11.60009766 0.30249023 C-10.78831055 0.28061646 -9.97652344 0.25874268 -9.14013672 0.23620605 C-7.59645929 0.19659393 -6.05266829 0.16112897 -4.50878906 0.13037109 C-3.00556245 0.09881292 -1.50255145 0.05500268 0 0 Z " fill="#6867FD" transform="translate(173.28759765625,10.916259765625)"/>
<path d="M0 0 C0.80125809 -0.00315216 1.60251617 -0.00630432 2.42805481 -0.009552 C3.72183296 -0.00651566 3.72183296 -0.00651566 5.04174805 -0.00341797 C5.933311 -0.00437469 6.82487396 -0.00533142 7.74345398 -0.00631714 C9.63056509 -0.00699772 11.51767854 -0.00515193 13.40478516 -0.00097656 C16.28187381 0.00435452 19.158805 -0.00091591 22.03588867 -0.00732422 C23.87117547 -0.00666305 25.70646218 -0.00538107 27.54174805 -0.00341797 C28.39819412 -0.0054422 29.2546402 -0.00746643 30.13703918 -0.009552 C34.53521611 0.00754867 38.6606091 0.24568388 42.9909668 1.12939453 C49.85097847 20.94893053 56.59030917 40.80155696 63.0534668 60.75439453 C63.34527832 61.65518738 63.63708984 62.55598022 63.93774414 63.48406982 C64.22987793 64.38586975 64.52201172 65.28766968 64.82299805 66.21679688 C68.53832764 77.6834919 72.29515253 89.13490211 76.1159668 100.56689453 C76.35735382 101.2891925 76.59874084 102.01149048 76.84744263 102.75567627 C78.06005827 106.38299729 79.27381894 110.0099339 80.48803711 113.63671875 C82.90066259 120.84539579 85.30197289 128.05784942 87.70477295 135.26980591 C88.70294744 138.26560799 89.70135682 141.2613315 90.70046997 144.25682068 C91.15887956 145.63276222 91.61632431 147.00902564 92.07272339 148.38563538 C93.09987739 151.48049007 94.14419377 154.5671859 95.22143555 157.64501953 C95.58881836 158.70205078 95.95620117 159.75908203 96.3347168 160.84814453 C96.81714844 162.20842773 96.81714844 162.20842773 97.30932617 163.59619141 C97.9909668 166.12939453 97.9909668 166.12939453 97.9909668 171.12939453 C84.1309668 171.12939453 70.2709668 171.12939453 55.9909668 171.12939453 C53.64236857 165.84504853 51.48374207 160.97966166 49.65893555 155.57470703 C49.25690918 154.39368408 48.85488281 153.21266113 48.44067383 151.99584961 C48.02414551 150.76116943 47.60761719 149.52648926 47.1784668 148.25439453 C46.28685263 145.6349046 45.39141254 143.01673365 44.49487305 140.39892578 C44.27599426 139.75922348 44.05711548 139.11952118 43.831604 138.46043396 C42.1619096 133.59410052 40.42061899 128.75953614 38.6159668 123.94189453 C35.2112494 114.8360351 31.97519336 105.67183505 28.7409668 96.50439453 C28.34690643 95.38878647 28.34690643 95.38878647 27.94488525 94.25064087 C27.18317595 92.09339877 26.4227458 89.93571065 25.6628418 87.77783203 C25.43807159 87.14091934 25.21330139 86.50400665 24.98171997 85.84779358 C23.26375922 80.95954873 21.61822287 76.04851916 19.9909668 71.12939453 C19.7987706 71.68536819 19.6065744 72.24134186 19.40855408 72.81416321 C11.11367849 96.80751572 2.81719066 120.80035334 -5.53585815 144.77352905 C-6.18218417 146.62871923 -6.82812225 148.48404461 -7.47366333 150.33950806 C-8.36968986 152.91441456 -9.26724248 155.48878368 -10.1652832 158.06298828 C-10.42595078 158.81274933 -10.68661835 159.56251038 -10.95518494 160.33499146 C-12.227025 163.97454224 -13.57617582 167.54725108 -15.0090332 171.12939453 C-30.1890332 171.12939453 -45.3690332 171.12939453 -61.0090332 171.12939453 C-59.88401321 162.12923463 -59.88401321 162.12923463 -58.70898438 158.56982422 C-58.44700256 157.76423065 -58.18502075 156.95863708 -57.9151001 156.12863159 C-57.63027771 155.27810211 -57.34545532 154.42757263 -57.05200195 153.55126953 C-56.75324158 152.63991241 -56.4544812 151.7285553 -56.14666748 150.7895813 C-55.17026368 147.81717037 -54.18347187 144.84832236 -53.1965332 141.87939453 C-52.50980461 139.79512344 -51.82369505 137.71064829 -51.13818359 135.62597656 C-46.87743327 122.68781016 -42.55777792 109.76920188 -38.22543335 96.8548584 C-34.33706658 85.25600638 -30.59402791 73.61453266 -26.90252686 61.95162964 C-17.60756522 32.59208468 -17.60756522 32.59208468 -13.10351562 18.83862305 C-12.58556783 17.2511446 -12.07183612 15.66228387 -11.5625 14.07202148 C-10.86460971 11.89583684 -10.15187604 9.72510536 -9.43481445 7.55517578 C-9.03689697 6.3322583 -8.63897949 5.10934082 -8.22900391 3.84936523 C-7.82641357 2.9517749 -7.42382324 2.05418457 -7.0090332 1.12939453 C-4.31194692 0.23036577 -2.76567962 0.00312728 0 0 Z " fill="#D5839F" transform="translate(66.009033203125,10.87060546875)"/>
<path d="M0 0 C42.24 0 84.48 0 128 0 C128 9.24 128 18.48 128 28 C97.31 28 66.62 28 35 28 C35 40.21 35 52.42 35 65 C63.38 65 91.76 65 121 65 C121 74.9 121 84.8 121 95 C92.62 95 64.24 95 35 95 C35 110.18 35 125.36 35 141 C66.68 141 98.36 141 131 141 C131 150.24 131 159.48 131 169 C87.77 169 44.54 169 0 169 C0 113.23 0 57.46 0 0 Z " fill="#050505" transform="translate(606,13)"/>
<path d="M0 0 C1.60279192 0.00015914 3.20558896 0.00585476 4.80834961 0.01586914 C5.65038437 0.01728409 6.49241913 0.01869904 7.35997009 0.02015686 C10.06024671 0.02577276 12.76044163 0.03832791 15.46069336 0.05102539 C17.28686404 0.05603834 19.11303602 0.06060161 20.93920898 0.06469727 C25.42556878 0.07574735 29.9118672 0.0930226 34.39819336 0.11352539 C37.06993761 5.32781789 39.48527876 10.54272093 41.64038086 15.98852539 C42.07666306 17.07991821 42.07666306 17.07991821 42.52175903 18.19335938 C43.13341595 19.72550148 43.74341155 21.25830779 44.35180664 22.79174805 C45.26051191 25.08156975 46.1745792 27.36918975 47.08959961 29.65649414 C50.29038363 37.67843848 53.41769569 45.72291761 56.41317749 53.82397461 C58.16720976 58.55786897 60.08139111 63.20827507 62.05053711 67.85571289 C64.02471605 72.62807591 65.8764708 77.44671777 67.72412109 82.26928711 C69.71687133 87.44539873 71.82748162 92.56511948 73.9699707 97.6809082 C76.84770488 104.59730863 79.64872881 111.54518629 82.46069336 118.48852539 C82.78401642 119.28657593 83.10733948 120.08462646 83.44046021 120.90686035 C87.82348953 131.72739245 92.19742908 142.55160635 96.54293823 153.38726807 C97.07015914 154.70157578 97.59792754 156.015664 98.12625122 157.32952881 C98.85276517 159.13703279 99.57672546 160.94556258 100.30053711 162.75415039 C100.70780029 163.77025391 101.11506348 164.78635742 101.53466797 165.83325195 C102.39819336 168.11352539 102.39819336 168.11352539 102.39819336 169.11352539 C89.52819336 169.11352539 76.65819336 169.11352539 63.39819336 169.11352539 C58.44608877 157.22847437 53.91907338 145.16920545 49.39819336 133.11352539 C15.73819336 132.61852539 15.73819336 132.61852539 -18.60180664 132.11352539 C-19.59180664 135.41352539 -20.58180664 138.71352539 -21.60180664 142.11352539 C-22.40387284 144.41656786 -23.22841751 146.71199083 -24.08227539 148.99633789 C-24.4808374 150.06770996 -24.87939941 151.13908203 -25.29003906 152.24291992 C-25.78479736 153.56146973 -26.27955566 154.88001953 -26.78930664 156.23852539 C-28.37743164 160.48727539 -29.96555664 164.73602539 -31.60180664 169.11352539 C-44.14180664 169.11352539 -56.68180664 169.11352539 -69.60180664 169.11352539 C-67.27167312 162.12312482 -64.97441643 155.24734632 -62.27368164 148.41430664 C-61.96786163 147.63312469 -61.66204163 146.85194275 -61.34695435 146.04708862 C-60.35133352 143.50564121 -59.3515571 140.96585077 -58.35180664 138.42602539 C-57.64201116 136.61601198 -56.93254511 134.80586935 -56.22338867 132.99560547 C-54.75152641 129.23916023 -53.27826018 125.48327033 -51.80395508 121.7277832 C-48.68297682 113.77483179 -45.57807492 105.8156135 -42.47354126 97.85623169 C-41.47584518 95.29856061 -40.47771966 92.74105748 -39.47949219 90.18359375 C-35.03231258 78.78864749 -30.59573499 67.38960527 -26.16430664 55.98852539 C-20.99484515 42.68979298 -15.82479958 29.39135275 -10.60180664 16.11352539 C-10.29243164 15.32574707 -9.98305664 14.53796875 -9.66430664 13.72631836 C-8.8132579 11.56247191 -7.95842193 9.40017318 -7.10180664 7.23852539 C-6.63774414 6.06547852 -6.17368164 4.89243164 -5.69555664 3.68383789 C-4.18408444 0.13187821 -4.18408444 0.13187821 0 0 Z M14.39819336 41.11352539 C11.52595532 48.90061946 8.65718315 56.68897758 5.79286194 64.47898674 C4.46282212 68.09591824 3.13157986 71.71239772 1.79760742 75.32788086 C0.51098312 78.81517082 -0.77250574 82.30359973 -2.05380249 85.79285049 C-2.54389283 87.12575703 -3.03512333 88.4582449 -3.52749634 89.79030991 C-4.21541391 91.6519914 -4.89895272 93.51528917 -5.58227539 95.37866211 C-5.97310303 96.44011444 -6.36393066 97.50156677 -6.76660156 98.59518433 C-7.70673614 100.98770831 -7.70673614 100.98770831 -7.60180664 103.11352539 C7.57819336 103.11352539 22.75819336 103.11352539 38.39819336 103.11352539 C33.35895381 88.81698346 33.35895381 88.81698346 28.09350586 74.60961914 C27.72466278 73.63485123 27.3558197 72.66008331 26.97579956 71.65577698 C25.8267048 68.62018419 24.67501145 65.58558573 23.52319336 62.55102539 C22.73135204 60.46059675 21.93968429 58.37010235 21.14819336 56.27954102 C19.23352138 51.2234448 17.3167302 46.16815626 15.39819336 41.11352539 C15.06819336 41.11352539 14.73819336 41.11352539 14.39819336 41.11352539 Z " fill="#060606" transform="translate(351.601806640625,12.886474609375)"/>
<path d="M0 0 C5.72896211 -0.19826037 11.45591541 -0.34315634 17.1875 -0.43945312 C19.13544505 -0.47960359 21.0831502 -0.53413913 23.03027344 -0.60351562 C25.83588813 -0.7009527 28.63831064 -0.74600609 31.4453125 -0.78125 C32.31116974 -0.82254028 33.17702698 -0.86383057 34.06912231 -0.90637207 C37.66450106 -0.90902018 40.02986832 -0.8764146 42.7681427 1.59733582 C44.34185952 3.66138973 45.6831173 5.76453507 47 8 C47.76589743 9.13564983 48.53692735 10.26786337 49.31420898 11.39575195 C50.03423096 12.49878662 50.75425293 13.60182129 51.49609375 14.73828125 C51.8927272 15.34455856 52.28936066 15.95083588 52.69801331 16.57548523 C53.94702575 18.48619379 55.19225465 20.39933486 56.4375 22.3125 C57.26604431 23.5802296 58.09481907 24.84780863 58.92382812 26.11523438 C63.66844827 33.37700483 68.3638442 40.66833871 73 48 C75.72818841 44.66709069 78.23022594 41.27313649 80.609375 37.68359375 C81.28226563 36.67103516 81.95515625 35.65847656 82.6484375 34.61523438 C83.68871094 33.04225586 83.68871094 33.04225586 84.75 31.4375 C86.11979167 29.37369792 87.48958333 27.30989583 88.859375 25.24609375 C90.94807681 22.09575046 93.0363362 18.94511964 95.12304688 15.79345703 C95.80947266 14.75946777 96.49589844 13.72547852 97.203125 12.66015625 C97.81317383 11.73984619 98.42322266 10.81953613 99.05175781 9.87133789 C99.69467773 8.92379639 100.33759766 7.97625488 101 7 C101.33545334 6.37773026 101.67090668 5.75546051 102.01652527 5.11433411 C103.6601095 2.31317926 104.81826158 0.35247566 108.02365112 -0.60359192 C110.53114336 -0.81122595 112.94313301 -0.78786779 115.45703125 -0.68359375 C116.81147591 -0.6687368 116.81147591 -0.6687368 118.19328308 -0.65357971 C121.06803105 -0.61449532 123.9389132 -0.52669106 126.8125 -0.4375 C128.76491868 -0.40237815 130.71739741 -0.37044067 132.66992188 -0.34179688 C137.44809659 -0.26475335 142.22339373 -0.14401669 147 0 C145.45795317 4.40912712 143.11934366 8.12192046 140.546875 11.984375 C140.0984877 12.66524673 139.6501004 13.34611847 139.18812561 14.04762268 C137.71316028 16.28469575 136.23169739 18.51738131 134.75 20.75 C133.7219305 22.3060231 132.6941841 23.86225973 131.66674805 25.41870117 C128.45208709 30.28418195 125.22754542 35.14305903 122 40 C121.47303528 40.79303528 120.94607056 41.58607056 120.40313721 42.40313721 C114.3174946 51.55878073 108.21900697 60.70580926 102.10864258 69.8449707 C101.41279053 70.88613037 100.71693848 71.92729004 100 73 C99.22873779 74.02246826 98.45747559 75.04493652 97.6628418 76.09838867 C95.8085099 78.79263144 95.8085099 78.79263144 95.96069336 81.41967773 C97.40819306 85.01343491 99.45087911 88.10536162 101.62890625 91.28515625 C102.0968309 91.98209091 102.56475555 92.67902557 103.04685974 93.39707947 C104.54453958 95.62407508 106.0532267 97.84334948 107.5625 100.0625 C108.55087839 101.5274903 109.53851589 102.99298073 110.52539062 104.45898438 C112.45037885 107.31655777 114.37932798 110.17138654 116.31176758 113.02392578 C119.90369545 118.32989894 123.45119228 123.665113 127 129 C127.83660597 130.25042415 128.67374956 131.50048899 129.51171875 132.75 C131.52673676 135.75986533 133.53081826 138.77665956 135.53173828 141.79589844 C136.58746555 143.38071816 137.64904555 144.96164482 138.71435547 146.54003906 C140.52840852 149.2281403 142.32744432 151.92584668 144.125 154.625 C144.70596436 155.47835937 145.28692871 156.33171875 145.88549805 157.2109375 C146.6885437 158.42523438 146.6885437 158.42523438 147.5078125 159.6640625 C147.98879395 160.38029785 148.46977539 161.0965332 148.96533203 161.83447266 C150.18319362 164.38341846 150.19505851 166.2086455 150 169 C144.45026865 169.27328223 138.9044972 169.47210322 133.34960938 169.60424805 C131.46349857 169.65935118 129.57785319 169.7342651 127.69335938 169.82983398 C112.13598149 170.59865789 112.13598149 170.59865789 107.1796875 166.88916016 C105.0717958 164.02997598 103.5383642 161.19823106 102 158 C100.84361479 156.16517627 99.66665151 154.34314874 98.46875 152.53515625 C97.90027344 151.62781738 97.33179688 150.72047852 96.74609375 149.78564453 C93.72397234 144.96427914 90.6058696 140.20516993 87.5 135.4375 C86.87480469 134.47392578 86.24960938 133.51035156 85.60546875 132.51757812 C81.52635423 126.25533502 77.32650057 120.09393271 73 114 C72.39414063 114.98097656 71.78828125 115.96195312 71.1640625 116.97265625 C65.65941043 125.85198618 60.00121428 134.60608579 54.1640625 143.27001953 C52.39219737 145.90329058 50.63397253 148.54560571 48.875 151.1875 C47.94276611 152.52361328 47.94276611 152.52361328 46.99169922 153.88671875 C44.93301565 156.91722035 44.93301565 156.91722035 43.64501953 160.16625977 C41.81456692 163.97935793 40.2678053 166.27647714 37 169 C29.9459967 171.03122393 22.23634693 170.12145413 15 169.75 C12.96500064 169.6897565 10.92983057 169.63501239 8.89453125 169.5859375 C3.92545344 169.45417695 -1.03539421 169.24746885 -6 169 C-3.79899236 165.10065845 -1.59135501 161.2616156 0.90625 157.54296875 C1.47158447 156.69822998 2.03691895 155.85349121 2.61938477 154.9831543 C3.23998779 154.06058838 3.86059082 153.13802246 4.5 152.1875 C5.53531674 150.64097136 6.57061724 149.09443182 7.60560608 147.54768372 C8.80267062 145.75922192 10.0006924 143.97140354 11.19873047 142.18359375 C16.36914289 134.46475054 21.52487257 126.7360901 26.68066406 119.00747681 C28.53212269 116.23302114 30.38514743 113.45961624 32.23828125 110.6862793 C43.06576596 96.08245208 43.06576596 96.08245208 51 80 C49.77803755 77.0890556 49.77803755 77.0890556 47.5625 74.125 C46.72043993 72.89124849 45.87936912 71.65682145 45.0390625 70.421875 C44.32218262 69.38643555 44.32218262 69.38643555 43.59082031 68.33007812 C40.45384276 63.73533998 37.46288988 59.04360288 34.4375 54.375 C30.07369746 47.68009952 25.68540834 41.00434784 21.234375 34.3671875 C17.19663274 28.31057411 13.24764926 22.1946551 9.27734375 16.09375 C8.65472656 15.13726562 8.03210937 14.18078125 7.390625 13.1953125 C6.80216797 12.28942383 6.21371094 11.38353516 5.60742188 10.45019531 C4.27848693 8.424498 2.92167026 6.42422791 1.546875 4.4296875 C0 2 0 2 0 0 Z " fill="#080808" transform="translate(1115,13)"/>
<path d="M0 0 C12.87 0 25.74 0 39 0 C46.27347029 20.70753017 53.53822063 41.41422727 60.4375 62.25 C64.5480445 74.66227862 68.73477473 87.04170968 73.07666016 99.37548828 C74.40303733 103.14559792 75.72094783 106.91865728 77.03979492 110.69140625 C78.35807658 114.46156441 79.67892873 118.23081853 81 122 C84.78296436 113.28328954 87.58731865 104.24911104 90.48477173 95.21218872 C95.59890196 79.2723226 100.86495306 63.39139085 106.3125 47.5625 C111.74629039 31.76768135 116.95302061 15.92409016 122 0 C134.54 0 147.08 0 160 0 C159.34984457 3.25077716 158.75238777 5.97686181 157.68408203 9.03881836 C157.41888763 9.80376617 157.15369324 10.56871399 156.88046265 11.35684204 C156.5924881 12.1762326 156.30451355 12.99562317 156.0078125 13.83984375 C155.55591049 15.13708878 155.55591049 15.13708878 155.09487915 16.46054077 C154.108595 19.28749375 153.11705402 22.11256712 152.125 24.9375 C151.43260425 26.91625524 150.74022155 28.89501504 150.04785156 30.8737793 C145.96337176 42.52496925 141.78510656 54.13504737 137.48901367 65.70996094 C132.65082818 78.81444157 128.05805886 92.00506528 123.4375 105.1875 C115.93528779 126.58378958 108.42223853 147.94440367 100 169 C86.8 169 73.6 169 60 169 C55.34798372 156.41948389 50.7557695 143.82103627 46.25 131.1875 C45.78194946 129.87664429 45.78194946 129.87664429 45.30444336 128.53930664 C39.24457127 111.56349824 33.26186931 94.56075374 27.28988647 77.55386353 C21.15888495 60.09519537 14.97516375 42.6563219 8.71875 25.2421875 C8.42818222 24.43198151 8.13761444 23.62177551 7.83824158 22.78701782 C7.31172679 21.31912398 6.78416831 19.85160368 6.25514221 18.38461304 C4.06829709 12.28528664 2.05098976 6.15296928 0 0 Z " fill="#080808" transform="translate(425,13)"/>
<path d="M0 0 C0.90070724 0.00022659 1.80141449 0.00045319 2.72941589 0.00068665 C4.18267021 0.02391243 4.18267021 0.02391243 5.6652832 0.04760742 C6.65986038 0.05185226 7.65443756 0.05609711 8.67915344 0.06047058 C11.8583982 0.07727465 15.03701102 0.11493041 18.21606445 0.15307617 C20.37035218 0.16812076 22.52464983 0.18180955 24.67895508 0.1940918 C29.96237412 0.22718373 35.24542414 0.27740025 40.52856445 0.34057617 C42.13835231 4.3692681 40.8413223 7.20449883 39.47583008 11.18237305 C39.24504257 11.86483093 39.01425507 12.54728882 38.776474 13.25042725 C38.0054811 15.52344009 37.21999086 17.7911778 36.43481445 20.05932617 C35.88505735 21.67291377 35.33645533 23.28689532 34.78894043 24.90124512 C33.63100578 28.31281504 32.46827493 31.72269681 31.30249023 35.1315918 C28.7288076 42.67163228 26.22024647 50.23329541 23.70837402 57.7940979 C22.29583693 62.04361953 20.87874546 66.29162209 19.4621582 70.53979492 C18.89035949 72.25511983 18.31858216 73.97045187 17.74682617 75.68579102 C8.34073893 103.90405273 -1.06534831 132.12231445 -10.47143555 160.34057617 C-11.13143555 160.34057617 -11.79143555 160.34057617 -12.47143555 160.34057617 C-13.46143555 163.31057617 -14.45143555 166.28057617 -15.47143555 169.34057617 C-16.13143555 168.02057617 -16.79143555 166.70057617 -17.47143555 165.34057617 C-17.96772461 164.54006836 -18.46401367 163.73956055 -18.9753418 162.91479492 C-20.46054356 160.35931722 -21.44862115 157.94334591 -22.40893555 155.15307617 C-23.66834279 151.57521469 -24.97231884 148.03851861 -26.40893555 144.52807617 C-28.96951448 138.20727699 -31.19371544 131.76727467 -33.47143555 125.34057617 C-34.83569265 121.52065629 -36.2207088 117.82274299 -38.09643555 114.21557617 C-39.56677645 111.141227 -40.32001535 108.74753055 -40.47143555 105.34057617 C-39.49389911 104.31860626 -38.49084744 103.32077992 -37.47143555 102.34057617 C-37.10617301 100.01202752 -36.77792871 97.67758655 -36.47143555 95.34057617 C-35.64387257 92.55064828 -34.62875278 90.02555215 -33.47143555 87.34057617 C-32.48143555 86.84557617 -32.48143555 86.84557617 -31.47143555 86.34057617 C-31.00492348 84.21480835 -31.00492348 84.21480835 -30.84643555 81.77807617 C-30.77166992 80.95178711 -30.6969043 80.12549805 -30.61987305 79.27416992 C-30.57088867 78.63608398 -30.5219043 77.99799805 -30.47143555 77.34057617 C-29.81143555 77.34057617 -29.15143555 77.34057617 -28.47143555 77.34057617 C-28.47030762 76.47384277 -28.46917969 75.60710937 -28.46801758 74.71411133 C-28.12546585 63.54516086 -25.1513981 54.15248724 -21.34643555 43.71557617 C-20.74837515 42.03419227 -20.15219593 40.3521381 -19.55786133 38.66943359 C-18.67715891 36.17806454 -17.79482076 33.68740091 -16.9045105 31.19944763 C-14.29280803 23.8995924 -11.86832051 16.5438308 -9.56469727 9.14086914 C-7.69578399 3.35063145 -6.46463211 -0.05432464 0 0 Z " fill="#494AF1" transform="translate(253.471435546875,10.659423828125)"/>
<path d="M0 0 C0.43989258 0.88896973 0.43989258 0.88896973 0.88867188 1.79589844 C1.81724318 3.63753765 2.79362057 5.45497104 3.78125 7.265625 C7.04358897 13.80836016 9.17374796 20.83493442 11.5 27.75 C12.02826346 29.3068518 12.55691718 30.86357123 13.0859375 32.42016602 C14.73365464 37.2768643 16.36868875 42.13776974 18 47 C18.25604004 47.76294373 18.51208008 48.52588745 18.77587891 49.31195068 C21.77288381 58.24731362 24.75024124 67.18914305 27.71839905 76.13412476 C29.55309568 81.66107052 31.39775788 87.18463335 33.24609375 92.70703125 C34.05110926 95.11423995 34.85601099 97.52148667 35.66088867 99.92874146 C36.16722317 101.44215394 36.67403605 102.95540648 37.18139648 104.46847534 C39.93191683 112.67277779 42.60803369 120.89267112 45.16531372 129.15931702 C47.62558737 137.07626988 50.33068494 144.91113674 53.04492188 152.74414062 C53.42841797 153.87400391 53.81191406 155.00386719 54.20703125 156.16796875 C54.5522583 157.17110107 54.89748535 158.1742334 55.25317383 159.20776367 C56 162 56 162 56 167 C42.14 167 28.28 167 14 167 C11.65140178 161.715654 9.49277527 156.85026713 7.66796875 151.4453125 C7.26594238 150.26428955 6.86391602 149.0832666 6.44970703 147.86645508 C6.03317871 146.6317749 5.61665039 145.39709473 5.1875 144.125 C4.29588583 141.50551007 3.40044574 138.88733912 2.50390625 136.26953125 C2.28502747 135.62982895 2.06614868 134.99012665 1.84063721 134.33103943 C0.17092829 129.4646637 -1.57150795 124.63060053 -3.375 119.8125 C-6.47393356 111.46951317 -9.53773806 103.11385457 -12.54571533 94.73764038 C-13.09198339 93.22248729 -13.64230149 91.70878735 -14.19696045 90.19668579 C-19.59317005 75.47061361 -19.59317005 75.47061361 -19.78369141 67.70727539 C-19.85507324 67.14387451 -19.92645508 66.58047363 -20 66 C-20.66 65.67 -21.32 65.34 -22 65 C-21.38800703 60.69305406 -20.36667771 56.80478006 -18.92578125 52.703125 C-18.50820557 51.50534424 -18.09062988 50.30756348 -17.66040039 49.07348633 C-17.44014191 48.4487442 -17.21988342 47.82400208 -16.99295044 47.18032837 C-16.07460987 44.57514399 -15.16704086 41.96625051 -14.25889587 39.35749817 C-13.80618865 38.057336 -13.35295435 36.75735723 -12.89918518 35.45756531 C-11.08351091 30.25463305 -9.30390405 25.0407233 -7.5625 19.8125 C-7.3260376 19.10448242 -7.0895752 18.39646484 -6.84594727 17.66699219 C-5.31984303 13.06143755 -3.90896341 8.43309568 -2.640625 3.75 C-2 2 -2 2 0 0 Z " fill="#4B4CF2" transform="translate(108,15)"/>
<path d="M0 0 C1.77206192 0.00015919 3.54412846 0.00585754 5.31616211 0.01586914 C6.24698105 0.01728409 7.17779999 0.01869904 8.13682556 0.02015686 C11.12241777 0.02577367 14.10793615 0.03832899 17.09350586 0.05102539 C19.11238499 0.05603823 21.13126529 0.06060151 23.15014648 0.06469727 C28.11046158 0.07574856 33.07072118 0.09302444 38.03100586 0.11352539 C39.38181083 4.57395322 38.61469745 6.95878553 36.74975586 11.16430664 C36.24041504 12.33098877 35.73107422 13.4976709 35.20629883 14.69970703 C34.64820384 15.94196416 34.08976685 17.18406769 33.53100586 18.42602539 C32.97268313 19.69169409 32.41555691 20.95789128 31.85961914 22.22460938 C30.76235514 24.71993013 29.65820691 27.21200284 28.54760742 29.70141602 C27.26059019 32.5969976 25.99278057 35.49906816 24.74194336 38.41040039 C24.2653125 39.51774536 24.2653125 39.51774536 23.77905273 40.64746094 C23.34689453 41.65160034 23.34689453 41.65160034 22.90600586 42.67602539 C21.43395031 46.07786521 20.0865937 49.03014364 18.03100586 52.11352539 C15.03100586 51.11352539 15.03100586 51.11352539 13.80761719 48.93066406 C13.41340576 47.97393799 13.01919434 47.01721191 12.61303711 46.03149414 C12.16686035 44.96302246 11.72068359 43.89455078 11.26098633 42.79370117 C10.5593335 41.06482666 10.5593335 41.06482666 9.84350586 39.30102539 C9.36026855 38.13297363 8.87703125 36.96492188 8.37915039 35.76147461 C6.91741594 32.21707057 5.47224268 28.66630681 4.03100586 25.11352539 C3.60964355 24.08211426 3.18828125 23.05070312 2.75415039 21.98803711 C1.63235127 19.24048225 0.51664166 16.49060986 -0.59399414 13.73852539 C-0.92423584 12.9202124 -1.25447754 12.10189941 -1.59472656 11.25878906 C-1.89612549 10.50186768 -2.19752441 9.74494629 -2.50805664 8.96508789 C-2.76796387 8.31362793 -3.02787109 7.66216797 -3.2956543 6.9909668 C-3.99568424 5.03910665 -4.58166262 3.15179603 -4.96899414 1.11352539 C-3.96899414 0.11352539 -3.96899414 0.11352539 0 0 Z " fill="#9A9AFD" transform="translate(194.968994140625,10.886474609375)"/>
<path d="M0 0 C0.99 0 1.98 0 3 0 C3.43699219 1.1152002 3.43699219 1.1152002 3.8828125 2.25292969 C5.00319856 5.11114726 6.12428674 7.96908844 7.24569702 10.8269043 C7.99881827 12.74698717 8.75099648 14.66743783 9.50317383 16.58789062 C11.80666375 22.46271623 14.12259916 28.33115979 16.51171875 34.171875 C16.88232422 35.08098633 17.25292969 35.99009766 17.63476562 36.92675781 C18.3215964 38.60560669 19.01405158 40.28216878 19.71289062 41.95605469 C20.01775391 42.70274414 20.32261719 43.44943359 20.63671875 44.21875 C20.90186279 44.85748047 21.16700684 45.49621094 21.44018555 46.15429688 C22 48 22 48 22 52 C8.47 52 -5.06 52 -19 52 C-18.22922683 46.6045878 -17.23608939 42.44238235 -15.234375 37.51953125 C-14.95909973 36.82542648 -14.68382446 36.13132172 -14.40020752 35.41618347 C-13.52394338 33.21202954 -12.63708903 31.01231624 -11.75 28.8125 C-11.16989119 27.35639121 -10.59045867 25.90001279 -10.01171875 24.44335938 C-6.753325 16.2623795 -3.41743574 8.1159228 0 0 Z " fill="#CEA1CE" transform="translate(83,130)"/>
<path d="M0 0 C0.80125809 -0.00315216 1.60251617 -0.00630432 2.42805481 -0.009552 C3.72183296 -0.00651566 3.72183296 -0.00651566 5.04174805 -0.00341797 C6.37909248 -0.00485306 6.37909248 -0.00485306 7.74345398 -0.00631714 C9.63056509 -0.00699772 11.51767854 -0.00515193 13.40478516 -0.00097656 C16.28187381 0.00435452 19.158805 -0.00091591 22.03588867 -0.00732422 C23.87117547 -0.00666305 25.70646218 -0.00538107 27.54174805 -0.00341797 C28.39819412 -0.0054422 29.2546402 -0.00746643 30.13703918 -0.009552 C34.51278552 0.00746145 38.7112134 0.09681378 42.9909668 1.12939453 C44.26831055 2.87158203 44.26831055 2.87158203 44.9284668 5.00439453 C45.16436523 5.70306641 45.40026367 6.40173828 45.64331055 7.12158203 C45.9909668 9.12939453 45.9909668 9.12939453 44.9909668 12.12939453 C44.0009668 9.81939453 43.0109668 7.50939453 41.9909668 5.12939453 C41.82081055 5.66306641 41.6506543 6.19673828 41.4753418 6.74658203 C40.13818479 10.85762857 38.70993008 14.88555025 37.0534668 18.87939453 C35.56250637 22.54513935 34.31288358 26.21330937 33.1784668 30.00439453 C31.18134681 36.67461741 28.89165546 43.22538875 26.57348633 49.79003906 C24.30587935 56.21348848 22.1096095 62.65503297 19.9909668 69.12939453 C21.4759668 69.62439453 21.4759668 69.62439453 22.9909668 70.12939453 C22.9909668 72.10939453 22.9909668 74.08939453 22.9909668 76.12939453 C22.3309668 75.13939453 21.6709668 74.14939453 20.9909668 73.12939453 C20.3309668 72.46939453 19.6709668 71.80939453 18.9909668 71.12939453 C17.94387651 64.69726851 19.66260881 59.05709491 21.9909668 53.12939453 C22.47204973 51.88013079 22.95124395 50.63013793 23.4284668 49.37939453 C23.67467773 48.73486328 23.92088867 48.09033203 24.17456055 47.42626953 C25.5995382 43.41724149 26.779479 39.33137134 28.0065918 35.25830078 C28.82925455 32.64340847 29.73186091 30.11345893 30.7409668 27.56689453 C32.21879551 24.11248537 32.21879551 24.11248537 31.9909668 20.12939453 C32.6509668 20.12939453 33.3109668 20.12939453 33.9909668 20.12939453 C35.23297431 14.81167303 36.29930892 9.54738125 36.9909668 4.12939453 C36.3309668 4.12939453 35.6709668 4.12939453 34.9909668 4.12939453 C34.6609668 5.11939453 34.3309668 6.10939453 33.9909668 7.12939453 C33.3309668 7.12939453 32.6709668 7.12939453 31.9909668 7.12939453 C31.4959668 5.64439453 31.4959668 5.64439453 30.9909668 4.12939453 C26.2221827 4.00564375 21.45433602 3.91498807 16.68432617 3.85473633 C15.06241575 3.82961681 13.44061826 3.79551425 11.8190918 3.75219727 C9.48547508 3.691426 7.15335632 3.66316159 4.8190918 3.64111328 C4.09602844 3.61530685 3.37296509 3.58950043 2.62799072 3.56291199 C-1.11528341 3.5608343 -2.69857251 3.84496796 -5.49829102 6.40991211 C-7.33278183 9.19368402 -7.33278183 9.19368402 -7.0090332 13.12939453 C-7.9990332 13.12939453 -8.9890332 13.12939453 -10.0090332 13.12939453 C-9.70009388 11.50371383 -9.38676371 9.87886705 -9.0715332 8.25439453 C-8.89750977 7.34947266 -8.72348633 6.44455078 -8.54418945 5.51220703 C-8.0090332 3.12939453 -8.0090332 3.12939453 -7.0090332 1.12939453 C-4.31194692 0.23036577 -2.76567962 0.00312728 0 0 Z " fill="#D3AED9" transform="translate(66.009033203125,10.87060546875)"/>
<path d="M0 0 C1.77206192 0.00015919 3.54412846 0.00585754 5.31616211 0.01586914 C6.24698105 0.01728409 7.17779999 0.01869904 8.13682556 0.02015686 C11.12241777 0.02577367 14.10793615 0.03832899 17.09350586 0.05102539 C19.11238499 0.05603823 21.13126529 0.06060151 23.15014648 0.06469727 C28.11046158 0.07574856 33.07072118 0.09302444 38.03100586 0.11352539 C39.38181083 4.57395322 38.61469745 6.95878553 36.74975586 11.16430664 C36.24041504 12.33098877 35.73107422 13.4976709 35.20629883 14.69970703 C34.64820384 15.94196416 34.08976685 17.18406769 33.53100586 18.42602539 C32.97268313 19.69169409 32.41555691 20.95789128 31.85961914 22.22460938 C30.76235514 24.71993013 29.65820691 27.21200284 28.54760742 29.70141602 C27.26059019 32.5969976 25.99278057 35.49906816 24.74194336 38.41040039 C24.2653125 39.51774536 24.2653125 39.51774536 23.77905273 40.64746094 C23.34689453 41.65160034 23.34689453 41.65160034 22.90600586 42.67602539 C21.43395031 46.07786521 20.0865937 49.03014364 18.03100586 52.11352539 C15.03100586 51.11352539 15.03100586 51.11352539 13.28100586 47.73852539 C12.03100586 44.11352539 12.03100586 44.11352539 13.03100586 41.11352539 C13.03100586 41.77352539 13.03100586 42.43352539 13.03100586 43.11352539 C13.69100586 43.11352539 14.35100586 43.11352539 15.03100586 43.11352539 C15.69100586 44.43352539 16.35100586 45.75352539 17.03100586 47.11352539 C18.51600586 46.61852539 18.51600586 46.61852539 20.03100586 46.11352539 C20.13413086 45.10290039 20.23725586 44.09227539 20.34350586 43.05102539 C21.05242439 38.99085561 22.35655488 35.86429558 24.03100586 32.11352539 C24.77530802 29.79438877 25.40609527 27.46895762 26.03100586 25.11352539 C26.69100586 25.11352539 27.35100586 25.11352539 28.03100586 25.11352539 C29.78835037 20.13990885 31.35685199 15.37192559 32.03100586 10.11352539 C33.35100586 9.78352539 34.67100586 9.45352539 36.03100586 9.11352539 C35.53600586 6.14352539 35.53600586 6.14352539 35.03100586 3.11352539 C16.71600586 2.61852539 16.71600586 2.61852539 -1.96899414 2.11352539 C-1.30899414 4.09352539 -0.64899414 6.07352539 0.03100586 8.11352539 C0.15600586 10.98852539 0.15600586 10.98852539 0.03100586 13.11352539 C-2.31813906 10.76438047 -2.70039771 9.15673093 -3.59399414 5.98852539 C-3.85438477 5.07844727 -4.11477539 4.16836914 -4.38305664 3.23071289 C-4.57641602 2.53204102 -4.76977539 1.83336914 -4.96899414 1.11352539 C-3.96899414 0.11352539 -3.96899414 0.11352539 0 0 Z " fill="#BFBDF1" transform="translate(194.968994140625,10.886474609375)"/>
<path d="M0 0 C0.90070724 0.00022659 1.80141449 0.00045319 2.72941589 0.00068665 C4.18267021 0.02391243 4.18267021 0.02391243 5.6652832 0.04760742 C6.65986038 0.05185226 7.65443756 0.05609711 8.67915344 0.06047058 C11.8583982 0.07727465 15.03701102 0.11493041 18.21606445 0.15307617 C20.37035218 0.16812076 22.52464983 0.18180955 24.67895508 0.1940918 C29.96237412 0.22718373 35.24542414 0.27740025 40.52856445 0.34057617 C41.74284721 4.39170136 41.04176849 6.61729871 39.6574707 10.63745117 C39.24819336 11.84272461 38.83891602 13.04799805 38.41723633 14.28979492 C37.97540599 15.55680117 37.53334576 16.82372727 37.09106445 18.09057617 C36.65194942 19.37279853 36.2137873 20.65534764 35.77661133 21.93823242 C34.70327012 25.07569135 33.62027316 28.20947078 32.52856445 31.34057617 C31.30742491 27.3085015 32.14193548 25.32415632 33.52856445 21.34057617 C34.05198797 18.60477936 34.38938505 15.85595531 34.71606445 13.09057617 C34.81081055 12.3712793 34.90555664 11.65198242 35.00317383 10.91088867 C35.60378465 7.01617437 35.60378465 7.01617437 34.52856445 3.34057617 C14.72856445 2.84557617 14.72856445 2.84557617 -5.47143555 2.34057617 C-5.47143555 3.99057617 -5.47143555 5.64057617 -5.47143555 7.34057617 C-6.13143555 7.34057617 -6.79143555 7.34057617 -7.47143555 7.34057617 C-7.80143555 10.64057617 -8.13143555 13.94057617 -8.47143555 17.34057617 C-9.13143555 17.34057617 -9.79143555 17.34057617 -10.47143555 17.34057617 C-10.47143555 19.32057617 -10.47143555 21.30057617 -10.47143555 23.34057617 C-11.46143555 23.67057617 -12.45143555 24.00057617 -13.47143555 24.34057617 C-12.81103881 19.60773288 -11.59967787 15.17622494 -10.09643555 10.65307617 C-9.78319336 9.65824219 -9.78319336 9.65824219 -9.46362305 8.64331055 C-7.61106128 3.03479275 -6.20291271 -0.05212532 0 0 Z " fill="#9393EB" transform="translate(253.471435546875,10.659423828125)"/>
<path d="M0 0 C2.33214424 3.64397537 2.23164058 6.75325612 2 11 C1 14 1 14 -1 15 C-2.05226728 16.97300116 -3.04788888 18.97676387 -4 21 C-5.01865156 23.03730311 -6.03421072 25.06271964 -7.125 27.0625 C-8.20579336 29.10136548 -8.20579336 29.10136548 -8 32 C-8.38528824 34.92819064 -8.8488224 36.77105125 -10.48828125 39.25390625 C-12.72857145 43.32347733 -12.7676439 47.37194838 -13.1796875 51.94140625 C-14.20361625 55.75919771 -15.75741558 56.86781829 -19 59 C-18.140422 48.81400068 -14.52594754 39.79218979 -10.96484375 30.30078125 C-8.34838464 23.31985617 -6.20193316 16.23780189 -4.16796875 9.06640625 C-3.90628906 8.15761719 -3.64460938 7.24882812 -3.375 6.3125 C-3.15585938 5.52488281 -2.93671875 4.73726562 -2.7109375 3.92578125 C-2 2 -2 2 0 0 Z " fill="#4437D3" transform="translate(108,15)"/>
<path d="M0 0 C1.90372852 -0.04820379 3.80952064 0.0092614 5.71240234 0.08374023 C8.02246103 2.39379892 8.43414337 3.9145768 9.33740234 7.02124023 C9.72798828 8.33415039 9.72798828 8.33415039 10.12646484 9.67358398 C10.71240234 12.08374023 10.71240234 12.08374023 10.71240234 15.08374023 C10.05240234 15.08374023 9.39240234 15.08374023 8.71240234 15.08374023 C8.71240234 13.43374023 8.71240234 11.78374023 8.71240234 10.08374023 C7.72240234 9.75374023 6.73240234 9.42374023 5.71240234 9.08374023 C5.05240234 7.43374023 4.39240234 5.78374023 3.71240234 4.08374023 C-9.48759766 4.08374023 -22.68759766 4.08374023 -36.28759766 4.08374023 C-36.68151695 9.64058102 -36.68151695 9.64058102 -35.16259766 12.70874023 C-34.28759766 15.08374023 -34.28759766 15.08374023 -35.23291016 17.23217773 C-35.58095703 17.84319336 -35.92900391 18.45420898 -36.28759766 19.08374023 C-37.12884082 16.83641922 -37.96074598 14.58635238 -38.78759766 12.33374023 C-39.02607422 11.69952148 -39.26455078 11.06530273 -39.51025391 10.41186523 C-40.73561523 7.05087416 -41.28759766 4.71502436 -41.28759766 1.08374023 C-35.87991733 0.93998403 -30.47220284 0.79761596 -25.06445312 0.65649414 C-23.2275292 0.60836654 -21.3906149 0.55986982 -19.55371094 0.51098633 C-16.90253144 0.44049919 -14.25131932 0.37137099 -11.60009766 0.30249023 C-10.78831055 0.28061646 -9.97652344 0.25874268 -9.14013672 0.23620605 C-7.59645929 0.19659393 -6.05266829 0.16112897 -4.50878906 0.13037109 C-3.00556245 0.09881292 -1.50255145 0.05500268 0 0 Z " fill="#8B89EA" transform="translate(173.28759765625,10.916259765625)"/>
<path d="M0 0 C0.33 0 0.66 0 1 0 C1 1.65 1 3.3 1 5 C1.66 5 2.32 5 3 5 C4.32 8.96 5.64 12.92 7 17 C21.85 17 36.7 17 52 17 C52.99 14.36 53.98 11.72 55 9 C56 12 56 12 53 20 C37.16 20 21.32 20 5 20 C0 8 0 8 -1 2 C-0.67 1.34 -0.34 0.68 0 0 Z " fill="#8F8DEC" transform="translate(186,162)"/>
<path d="M0 0 C2.73280164 2.73280164 3.47505333 5.9127941 4.64453125 9.5078125 C4.89619553 10.26609344 5.1478598 11.02437439 5.40715027 11.80563354 C6.21455318 14.24360645 7.01346678 16.68427288 7.8125 19.125 C8.33867253 20.71501598 8.86536006 22.30486164 9.39257812 23.89453125 C12.11555996 32.12827685 14.76206313 40.38254307 17.32859802 48.66633606 C19.13896124 54.49354894 21.13873516 60.238173 23.1796875 65.98828125 C24 69 24 69 23 72 C21.99619084 69.20964954 20.9968055 66.41785145 20 63.625 C19.57074219 62.43390625 19.57074219 62.43390625 19.1328125 61.21875 C18.72675781 60.07792969 18.72675781 60.07792969 18.3125 58.9140625 C18.06113281 58.2123291 17.80976563 57.5105957 17.55078125 56.78759766 C17 55 17 55 17 53 C16.34 53 15.68 53 15 53 C13.87752146 50.75504292 13.73168079 49.11556845 13.5 46.625 C13.22175328 43.6537225 12.78907653 40.88012934 12 38 C11.01 38 10.02 38 9 38 C9 36.02 9 34.04 9 32 C8.34 32 7.68 32 7 32 C6.87882813 31.41992188 6.75765625 30.83984375 6.6328125 30.2421875 C5.87547583 26.7118335 5.10116822 23.29755358 3.9375 19.875 C2.86901509 16.59831293 2.48685237 13.4079666 2 10 C1.649375 8.948125 1.29875 7.89625 0.9375 6.8125 C0 4 0 4 0 0 Z " fill="#ACACF1" transform="translate(136,96)"/>
<path d="M0 0 C2 2 2 2 2 5 C2.99 5.33 3.98 5.66 5 6 C6.16558253 8.76105672 6.97593081 11.56510361 7.83984375 14.43359375 C8.77635964 17.13158096 8.77635964 17.13158096 11.12890625 18.34765625 C11.74636719 18.56292969 12.36382812 18.77820313 13 19 C12.01 19.99 11.02 20.98 10 22 C10.99 21.67 11.98 21.34 13 21 C13.66 21.33 14.32 21.66 15 22 C17.55106029 22.15644172 20.07918663 22.25821389 22.6328125 22.31640625 C23.38464813 22.33718735 24.13648376 22.35796844 24.91110229 22.37937927 C27.31564085 22.44482705 29.72028967 22.50373738 32.125 22.5625 C33.75391771 22.60568977 35.38282422 22.64930421 37.01171875 22.69335938 C41.00769915 22.80050351 45.00379059 22.90178433 49 23 C48.66226563 22.05898437 48.32453125 21.11796875 47.9765625 20.1484375 C47.01908313 17.061524 46.87273726 15.93088312 48 13 C49.51059728 17.0597302 50 19.54610667 50 24 C36.14 24 22.28 24 8 24 C3.44615385 13.75384615 3.44615385 13.75384615 1.75 8.625 C1.41484375 7.62726563 1.0796875 6.62953125 0.734375 5.6015625 C0 3 0 3 0 0 Z " fill="#9D9CF1" transform="translate(114,158)"/>
<path d="M0 0 C2.76184899 2.76184899 3.52261383 6.01657412 4.71484375 9.6484375 C4.97125137 10.41620514 5.227659 11.18397278 5.49183655 11.9750061 C6.03513438 13.60656156 6.57545305 15.23911159 7.11303711 16.87255859 C7.92368614 19.33307163 8.74520158 21.78974138 9.56835938 24.24609375 C12.40073579 32.75651749 15.02972379 41.23959835 17 50 C13.79197492 48.39598746 13.36998331 45.19662773 12 42 C11.34 41.67 10.68 41.34 10 41 C9.49568156 39.08358993 9.00099699 37.16388426 8.56640625 35.23046875 C8.03235991 33.12743109 7.33404034 31.24918213 6.5 29.25 C4.77251996 24.88811289 4.20837843 20.46867442 3.625 15.83203125 C2.93629114 12.71131925 1.72261295 10.66915288 0 8 C-1.09658936 4.71023192 -0.79953138 3.28696233 0 0 Z " fill="#5C5BDD" transform="translate(119,45)"/>
<path d="M0 0 C0.66 0 1.32 0 2 0 C0.44435164 7.9235496 -2.02639669 15.42504245 -4.625 23.0625 C-5.04523438 24.30966797 -5.46546875 25.55683594 -5.8984375 26.84179688 C-6.92818847 29.89594465 -7.96213551 32.94860185 -9 36 C-10.07536169 32.68176865 -9.9084748 30.28143393 -9.29296875 26.8671875 C-9.11830078 25.89652344 -8.94363281 24.92585938 -8.76367188 23.92578125 C-8.4784668 22.41564453 -8.4784668 22.41564453 -8.1875 20.875 C-8.00896484 19.86050781 -7.83042969 18.84601562 -7.64648438 17.80078125 C-6.25485969 10.25485969 -6.25485969 10.25485969 -4 8 C-3.3574765 5.93125966 -3.3574765 5.93125966 -3 4 C-2.34 4 -1.68 4 -1 4 C-0.67 2.68 -0.34 1.36 0 0 Z " fill="#8A8AE9" transform="translate(283,42)"/>
<path d="M0 0 C0.90070724 0.00022659 1.80141449 0.00045319 2.72941589 0.00068665 C4.18267021 0.02391243 4.18267021 0.02391243 5.6652832 0.04760742 C6.65986038 0.05185226 7.65443756 0.05609711 8.67915344 0.06047058 C11.8583982 0.07727465 15.03701102 0.11493041 18.21606445 0.15307617 C20.37035218 0.16812076 22.52464983 0.18180955 24.67895508 0.1940918 C29.96237412 0.22718373 35.24542414 0.27740025 40.52856445 0.34057617 C40.52856445 0.67057617 40.52856445 1.00057617 40.52856445 1.34057617 C25.34856445 1.67057617 10.16856445 2.00057617 -5.47143555 2.34057617 C-5.47143555 3.99057617 -5.47143555 5.64057617 -5.47143555 7.34057617 C-6.13143555 7.34057617 -6.79143555 7.34057617 -7.47143555 7.34057617 C-7.80143555 10.64057617 -8.13143555 13.94057617 -8.47143555 17.34057617 C-9.13143555 17.34057617 -9.79143555 17.34057617 -10.47143555 17.34057617 C-10.47143555 19.32057617 -10.47143555 21.30057617 -10.47143555 23.34057617 C-11.46143555 23.67057617 -12.45143555 24.00057617 -13.47143555 24.34057617 C-12.81103881 19.60773288 -11.59967787 15.17622494 -10.09643555 10.65307617 C-9.78319336 9.65824219 -9.78319336 9.65824219 -9.46362305 8.64331055 C-7.61106128 3.03479275 -6.20291271 -0.05212532 0 0 Z " fill="#CBCBF4" transform="translate(253.471435546875,10.659423828125)"/>
<path d="M0 0 C1.38120529 0.0001133 1.38120529 0.0001133 2.79031372 0.00022888 C4.28412064 0.00797081 4.28412064 0.00797081 5.80810547 0.01586914 C7.33538773 0.01799156 7.33538773 0.01799156 8.89352417 0.02015686 C12.15414332 0.02576639 15.41469448 0.03832051 18.67529297 0.05102539 C20.88232323 0.05603916 23.08935456 0.06060228 25.29638672 0.06469727 C30.71437877 0.07573891 36.13233101 0.09248634 41.55029297 0.11352539 C41.22029297 2.09352539 40.89029297 4.07352539 40.55029297 6.11352539 C39.89029297 4.79352539 39.23029297 3.47352539 38.55029297 2.11352539 C37.89029297 2.11352539 37.23029297 2.11352539 36.55029297 2.11352539 C36.22029297 3.10352539 35.89029297 4.09352539 35.55029297 5.11352539 C34.89029297 5.11352539 34.23029297 5.11352539 33.55029297 5.11352539 C33.05529297 3.62852539 33.05529297 3.62852539 32.55029297 2.11352539 C27.78150887 1.98977461 23.01366219 1.89911893 18.24365234 1.83886719 C16.62174192 1.81374767 14.99994443 1.77964511 13.37841797 1.73632812 C11.04480125 1.67555686 8.71268249 1.64729245 6.37841797 1.62524414 C5.65535461 1.59943771 4.93229126 1.57363129 4.18731689 1.54704285 C0.44404276 1.54496516 -1.13924634 1.82909882 -3.93896484 4.39404297 C-5.77345566 7.17781488 -5.77345566 7.17781488 -5.44970703 11.11352539 C-6.43970703 11.11352539 -7.42970703 11.11352539 -8.44970703 11.11352539 C-8.1686159 9.46585292 -7.87452177 7.82039394 -7.57470703 6.17602539 C-7.41228516 5.25950195 -7.24986328 4.34297852 -7.08251953 3.39868164 C-6.87369141 2.64458008 -6.66486328 1.89047852 -6.44970703 1.11352539 C-4.07579867 -0.07342879 -2.64725752 -0.00723294 0 0 Z " fill="#CE9CBE" transform="translate(64.44970703125,12.886474609375)"/>
<path d="M0 0 C0.66 0 1.32 0 2 0 C3.00380916 2.79035046 4.0031945 5.58214855 5 8.375 C5.42925781 9.56609375 5.42925781 9.56609375 5.8671875 10.78125 C6.13789063 11.54179687 6.40859375 12.30234375 6.6875 13.0859375 C6.93886719 13.7876709 7.19023437 14.4894043 7.44921875 15.21240234 C8 17 8 17 8 19 C8.66 19 9.32 19 10 19 C10.66 23.29 11.32 27.58 12 32 C0.78 32 -10.44 32 -22 32 C-22 31.67 -22 31.34 -22 31 C-11.44 31 -0.88 31 10 31 C8.535625 26.441875 7.07125 21.88375 5.5625 17.1875 C5.10174072 15.75301514 4.64098145 14.31853027 4.16625977 12.84057617 C3.80330811 11.71111572 3.44035645 10.58165527 3.06640625 9.41796875 C2.69459229 8.26063232 2.32277832 7.1032959 1.93969727 5.91088867 C1.3026439 3.93749629 0.65575258 1.96725775 0 0 Z " fill="#706EE5" transform="translate(151,149)"/>
<path d="M0 0 C0.99 0.495 0.99 0.495 2 1 C2 1.99 2 2.98 2 4 C2.99 4.33 3.98 4.66 5 5 C6 11.625 6 11.625 6 15 C6.66 15 7.32 15 8 15 C8.28875 15.9075 8.5775 16.815 8.875 17.75 C9.84779192 20.83192217 9.84779192 20.83192217 11.0078125 22.89453125 C12.11851507 25.25149458 12.55753348 27.37356455 13 29.9375 C13.52766915 32.81224151 14.06656336 35.16115341 15.1875 37.875 C16.15674146 40.4099392 15.74953181 41.45903399 15 44 C13.3443532 39.46566781 11.69036693 34.93073448 10.0378418 30.39526367 C9.47676193 28.85603941 8.91524774 27.31697339 8.35327148 25.77807617 C0 2.90125 0 2.90125 0 0 Z " fill="#ABABEE" transform="translate(98,114)"/>
<path d="M0 0 C1.08938469 3.26815408 0.96751261 3.86008201 -0.0480957 6.98071289 C-0.30198563 7.77486099 -0.55587555 8.56900909 -0.81745911 9.38722229 C-1.10070541 10.2404155 -1.38395172 11.0936087 -1.67578125 11.97265625 C-1.96100143 12.85150986 -2.24622162 13.73036346 -2.54008484 14.635849 C-3.14540124 16.49406773 -3.75512483 18.35085571 -4.36889648 20.20629883 C-5.30878483 23.05125453 -6.2325543 25.90107349 -7.15429688 28.75195312 C-7.74383847 30.55499945 -8.33430238 32.35774451 -8.92578125 34.16015625 C-9.20295486 35.01537369 -9.48012848 35.87059113 -9.76570129 36.75172424 C-10.1607209 37.93821815 -10.1607209 37.93821815 -10.5637207 39.14868164 C-10.79323929 39.84578751 -11.02275787 40.54289337 -11.25923157 41.26112366 C-12 43 -12 43 -14 45 C-13.85957123 43.35369672 -13.71250671 41.70795821 -13.5625 40.0625 C-13.44068359 38.68771484 -13.44068359 38.68771484 -13.31640625 37.28515625 C-13 35 -13 35 -12 34 C-11.71898054 31.68047431 -11.55217375 29.36114486 -11.37890625 27.03125 C-11.25386719 26.3609375 -11.12882813 25.690625 -11 25 C-10.34 24.67 -9.68 24.34 -9 24 C-7.88721563 21.46745627 -6.88729995 18.96788454 -5.9375 16.375 C-5.66873047 15.67503906 -5.39996094 14.97507812 -5.12304688 14.25390625 C-3.85293841 10.83949996 -2.86481322 7.66535325 -2.44140625 4.0390625 C-2.29574219 3.03617187 -2.15007812 2.03328125 -2 1 C-1.34 0.67 -0.68 0.34 0 0 Z " fill="#9897E7" transform="translate(262,108)"/>
<path d="M0 0 C0.33 0 0.66 0 1 0 C1.19110435 6.01978696 1.36397437 12.33657477 -1 18 C-1.99 18.33 -2.98 18.66 -4 19 C-4.80563638 21.10584438 -4.80563638 21.10584438 -5.1875 23.5625 C-5.34605469 24.38878906 -5.50460938 25.21507813 -5.66796875 26.06640625 C-5.77753906 26.70449219 -5.88710937 27.34257813 -6 28 C-6.66 28 -7.32 28 -8 28 C-8.33 29.32 -8.66 30.64 -9 32 C-10 30 -10 30 -9.19555664 27.01904297 C-8.77137451 25.77268066 -8.34719238 24.52631836 -7.91015625 23.2421875 C-7.68678085 22.57913605 -7.46340546 21.91608459 -7.23326111 21.23294067 C-6.51666327 19.11118381 -5.78972482 16.9931352 -5.0625 14.875 C-4.57548784 13.43903389 -4.08915096 12.00283858 -3.60351562 10.56640625 C-2.41017428 7.04157539 -1.20753292 3.51999793 0 0 Z " fill="#8382E7" transform="translate(239,35)"/>
<path d="M0 0 C0.33 0 0.66 0 1 0 C0.52575241 8.06220903 -1.82909329 14.99853993 -4.5625 22.5625 C-5.19961914 24.36170898 -5.19961914 24.36170898 -5.84960938 26.19726562 C-6.89116577 29.13468871 -7.94145384 32.06866595 -9 35 C-11.8613981 24.8478613 -4.49694877 10.68466352 -1 1 C-0.67 0.67 -0.34 0.34 0 0 Z " fill="#E3BECE" transform="translate(84,79)"/>
<path d="M0 0 C0.66 0.33 1.32 0.66 2 1 C2.125 6.75 2.125 6.75 1 9 C-12.86 9 -26.72 9 -41 9 C-37.21157527 6.47438352 -34.21466671 6.74608427 -29.83203125 6.8046875 C-28.63981209 6.80893234 -28.63981209 6.80893234 -27.42350769 6.81326294 C-24.88635162 6.82445295 -22.34954928 6.84955509 -19.8125 6.875 C-18.09180198 6.88503134 -16.37109841 6.89415692 -14.65039062 6.90234375 C-10.43345757 6.92438839 -6.21678875 6.95890994 -2 7 C-1.67 6.34 -1.34 5.68 -1 5 C-1.66 4.67 -2.32 4.34 -3 4 C-2.01 2.68 -1.02 1.36 0 0 Z " fill="#CE7786" transform="translate(49,172)"/>
<path d="M0 0 C2 3 2 3 3 6 C0.6875 9.1875 0.6875 9.1875 -2 12 C-2.66 12 -3.32 12 -4 12 C-4.33 14.64 -4.66 17.28 -5 20 C-5.66 20 -6.32 20 -7 20 C-7.33 21.32 -7.66 22.64 -8 24 C-9.37972303 21.24055395 -8.59545084 20.14121057 -7.63671875 17.24609375 C-7.32669922 16.30958984 -7.01667969 15.37308594 -6.69726562 14.40820312 C-6.36404297 13.42787109 -6.03082031 12.44753906 -5.6875 11.4375 C-5.20506836 9.96120117 -5.20506836 9.96120117 -4.71289062 8.45507812 C-4.39900391 7.51986328 -4.08511719 6.58464844 -3.76171875 5.62109375 C-3.47256592 4.7592749 -3.18341309 3.89745605 -2.88549805 3.00952148 C-2 1 -2 1 0 0 Z " fill="#DBA6B7" transform="translate(35,91)"/>
<path d="M0 0 C1.1700097 3.91736581 0.69584017 6.97959015 0 11 C-0.66 11 -1.32 11 -2 11 C-1.96519531 11.62648438 -1.93039063 12.25296875 -1.89453125 12.8984375 C-1.86746094 13.71570313 -1.84039062 14.53296875 -1.8125 15.375 C-1.77769531 16.18710938 -1.74289063 16.99921875 -1.70703125 17.8359375 C-1.80371094 18.55007812 -1.90039062 19.26421875 -2 20 C-2.99 20.66 -3.98 21.32 -5 22 C-5.67784992 24.33010909 -6.34416793 26.66359824 -7 29 C-8.625 30.9375 -8.625 30.9375 -10 32 C-9.30501795 28.06390349 -8.207728 24.39198038 -6.93359375 20.60546875 C-6.53076172 19.40341797 -6.12792969 18.20136719 -5.71289062 16.96289062 C-5.29201172 15.71701172 -4.87113281 14.47113281 -4.4375 13.1875 C-4.00818596 11.90959843 -3.57914667 10.63160452 -3.15039062 9.35351562 C-2.10295894 6.23475835 -1.05273478 3.11697039 0 0 Z " fill="#7C7CE1" transform="translate(225,77)"/>
<path d="M0 0 C1.32 0.33 2.64 0.66 4 1 C4.66 3.97 5.32 6.94 6 10 C4.10786631 7.61426621 2.97608217 5.92824652 2 3 C1.82984375 3.53367187 1.6596875 4.06734375 1.484375 4.6171875 C-0.43463324 10.5171171 -2.64054239 16.26304469 -5 22 C-5.33 22 -5.66 22 -6 22 C-6.46715232 14.83699771 -5.01288641 8.01932961 -1 2 C-0.67 1.34 -0.34 0.68 0 0 Z " fill="#BA88D4" transform="translate(106,13)"/>
<path d="M0 0 C13.53 0 27.06 0 41 0 C41 0.33 41 0.66 41 1 C39.90010742 1.01458252 38.80021484 1.02916504 37.66699219 1.04418945 C33.58153977 1.1022147 29.49663609 1.17944706 25.41162109 1.26245117 C23.64445917 1.29568069 21.87719161 1.32371882 20.10986328 1.34643555 C17.56757649 1.38001831 15.02625592 1.43233451 12.484375 1.48828125 C11.30134796 1.49786613 11.30134796 1.49786613 10.09442139 1.50764465 C5.81672975 1.62199608 3.0946442 1.90895422 0 5 C0 3.35 0 1.7 0 0 Z " fill="#6464EB" transform="translate(248,13)"/>
<path d="M0 0 C3.3477045 3.3477045 4.21430469 7.94655717 5.6875 12.375 C6.02072266 13.3340625 6.35394531 14.293125 6.69726562 15.28125 C7.16229492 16.66957031 7.16229492 16.66957031 7.63671875 18.0859375 C7.92248779 18.9320459 8.20825684 19.7781543 8.50268555 20.64990234 C9.03606181 23.17041286 8.83294762 24.59046359 8 27 C7.67 26.34 7.34 25.68 7 25 C6.34 25 5.68 25 5 25 C4.89042969 24.19175781 4.78085938 23.38351563 4.66796875 22.55078125 C4.50941406 21.48214844 4.35085937 20.41351563 4.1875 19.3125 C4.03667969 18.25675781 3.88585937 17.20101562 3.73046875 16.11328125 C2.97083896 12.8757147 1.79760738 10.76954207 0 8 C-1.09658936 4.71023192 -0.79953138 3.28696233 0 0 Z " fill="#9695E8" transform="translate(119,45)"/>
<path d="M0 0 C0.99 0.33 1.98 0.66 3 1 C4.26264601 5.29299643 3.62950412 7.87831311 2 12 C1.01 11.67 0.02 11.34 -1 11 C-1.73046875 8.93359375 -1.73046875 8.93359375 -2.1875 6.4375 C-2.34605469 5.61121094 -2.50460938 4.78492187 -2.66796875 3.93359375 C-2.77753906 3.29550781 -2.88710937 2.65742187 -3 2 C-2.01 1.34 -1.02 0.68 0 0 Z " fill="#4547ED" transform="translate(102,107)"/>
<path d="M0 0 C1.17791932 3.53375797 0.75415072 4.44851107 -0.43359375 7.88671875 C-0.9121582 9.2934082 -0.9121582 9.2934082 -1.40039062 10.72851562 C-1.74263672 11.70498047 -2.08488281 12.68144531 -2.4375 13.6875 C-2.77587891 14.67556641 -3.11425781 15.66363281 -3.46289062 16.68164062 C-4.30059974 19.12397565 -5.14657083 21.56312271 -6 24 C-6.33 24 -6.66 24 -7 24 C-7.38514166 14.75660014 -4.7854168 7.83068204 0 0 Z " fill="#9696E6" transform="translate(270,84)"/>
<path d="M0 0 C2.7594863 2.7594863 3.44827181 5.98144074 4.5625 9.625 C4.78357422 10.31207031 5.00464844 10.99914062 5.23242188 11.70703125 C6.71140376 16.47015721 7.50371799 21.03717994 8 26 C3.04765895 21.94808459 2.85199867 15.9639907 2 10 C1.649375 8.948125 1.29875 7.89625 0.9375 6.8125 C0 4 0 4 0 0 Z " fill="#8F8EE6" transform="translate(136,96)"/>
<path d="M0 0 C0.66 0.33 1.32 0.66 2 1 C2.8515625 3.72265625 2.8515625 3.72265625 3.625 7.0625 C3.88539063 8.16722656 4.14578125 9.27195312 4.4140625 10.41015625 C4.60742188 11.26480469 4.80078125 12.11945313 5 13 C5.33 13 5.66 13 6 13 C6 15.64 6 18.28 6 21 C3.83921227 17.75881841 2.65115273 14.71790415 1.3125 11.0625 C0.85488281 9.83660156 0.39726562 8.61070313 -0.07421875 7.34765625 C-0.93811367 4.22378307 -1.21062031 2.92750001 0 0 Z " fill="#A9A9F0" transform="translate(167,109)"/>
<path d="M0 0 C3 1 3 1 4.6875 4.3125 C6 8 6 8 6 12 C6.66 12 7.32 12 8 12 C8.625 13.8125 8.625 13.8125 9 16 C8.34 16.99 7.68 17.98 7 19 C5.82905995 16.2100561 4.66309073 13.41821403 3.5 10.625 C2.99919922 9.43390625 2.99919922 9.43390625 2.48828125 8.21875 C2.17246094 7.45820313 1.85664063 6.69765625 1.53125 5.9140625 C1.23798828 5.2123291 0.94472656 4.5105957 0.64257812 3.78759766 C0 2 0 2 0 0 Z " fill="#BDBCF0" transform="translate(195,24)"/>
<path d="M0 0 C1.94408722 2.91613083 3.21466387 5.64824006 4.5625 8.875 C4.99691406 9.90367187 5.43132812 10.93234375 5.87890625 11.9921875 C6.89236055 14.71121123 7.71330798 17.11296101 8 20 C7.34 20.66 6.68 21.32 6 22 C4.99018911 19.27411167 3.99196692 16.54487736 3 13.8125 C2.71382813 13.04357422 2.42765625 12.27464844 2.1328125 11.48242188 C0.71215062 7.54177643 -0.40963365 4.25848319 0 0 Z " fill="#5E5EE3" transform="translate(110,141)"/>
<path d="M0 0 C2.69725519 1.88807863 4.13216429 3.19824644 6 6 C5.125 8.6875 5.125 8.6875 4 11 C2.29159719 9.36587557 1.06546953 8.13093906 0 6 C-0.66 6.66 -1.32 7.32 -2 8 C-2 6.35 -2 4.7 -2 3 C-1.34 3 -0.68 3 0 3 C0 2.01 0 1.02 0 0 Z " fill="#4142E8" transform="translate(225,85)"/>
<path d="M0 0 C2.33698908 3.50548362 3.45185838 7.0809881 4.6875 11.0625 C5.04424805 12.16174805 5.04424805 12.16174805 5.40820312 13.28320312 C7.12194293 18.75611413 7.12194293 18.75611413 6 21 C5.525625 20.175 5.05125 19.35 4.5625 18.5 C4.046875 17.675 3.53125 16.85 3 16 C2.67 16 2.34 16 2 16 C-0.27141454 10.60539047 -0.20413361 5.73842251 0 0 Z " fill="#A2A1EF" transform="translate(195,59)"/>
<path d="M0 0 C0.66 0.33 1.32 0.66 2 1 C1.09495828 9.67775296 0.21443909 17.81779142 -3 26 C-4.09964408 22.64283117 -3.88421538 20.24500139 -3.22265625 16.796875 C-3.03896484 15.8171875 -2.85527344 14.8375 -2.66601562 13.828125 C-2.46685547 12.81234375 -2.26769531 11.7965625 -2.0625 10.75 C-1.86720703 9.71875 -1.67191406 8.6875 -1.47070312 7.625 C-0.98796618 5.08180048 -0.49747983 2.54034954 0 0 Z " fill="#5C5CEA" transform="translate(277,52)"/>
<path d="M0 0 C2.24226443 3.36339665 3.42592747 6.76340552 4.6875 10.5625 C4.92533203 11.24763672 5.16316406 11.93277344 5.40820312 12.63867188 C5.99980093 14.40652572 6.5063209 16.20234149 7 18 C6.67 18.66 6.34 19.32 6 20 C3 18 3 18 2.05078125 14.8828125 C1.80714844 13.64273438 1.56351562 12.40265625 1.3125 11.125 C1.06113281 9.89007813 0.80976562 8.65515625 0.55078125 7.3828125 C0 4 0 4 0 0 Z " fill="#8E8BE1" transform="translate(112,24)"/>
<path d="M0 0 C0.33 0 0.66 0 1 0 C1 1.65 1 3.3 1 5 C1.66 5 2.32 5 3 5 C4.5912689 9.873261 5.21192221 13.80790596 5 19 C3.13155139 16.19732709 2.00120523 13.75768886 0.8125 10.625 C0.44769531 9.68914062 0.08289063 8.75328125 -0.29296875 7.7890625 C-1.06072472 4.76045606 -0.84884925 2.97367573 0 0 Z " fill="#9A99EE" transform="translate(186,162)"/>
<path d="M0 0 C3.51097218 3.04284256 4.95461033 5.46997809 6 10 C6.14580512 12.69253453 6.09312178 15.29946828 6 18 C3.98996365 14.98494548 3.00828459 12.42503788 1.875 9 C1.52179688 7.948125 1.16859375 6.89625 0.8046875 5.8125 C0 3 0 3 0 0 Z " fill="#A0A0EF" transform="translate(149,61)"/>
<path d="M0 0 C0.33 0.66 0.66 1.32 1 2 C1.66 2 2.32 2 3 2 C3.66 3.32 4.32 4.64 5 6 C5.99 5.67 6.98 5.34 8 5 C8.73323796 2.98491642 8.73323796 2.98491642 9 1 C10 4 10 4 9.22265625 5.82421875 C8.1484375 7.54947917 7.07421875 9.27473958 6 11 C5.01 10.67 4.02 10.34 3 10 C1.25327015 6.5065403 0 3.93154432 0 0 Z " fill="#C5C3F1" transform="translate(207,52)"/>
<path d="M0 0 C2.52518799 3.78778199 3.74510239 7.64424594 5.1875 11.9375 C5.47302734 12.74896484 5.75855469 13.56042969 6.05273438 14.39648438 C6.45008789 15.57500977 6.45008789 15.57500977 6.85546875 16.77734375 C7.09934326 17.49140381 7.34321777 18.20546387 7.59448242 18.94116211 C8.05640677 21.28638065 7.74059885 22.75036376 7 25 C2.40774487 15.77448747 2.40774487 15.77448747 3 10 C2.34 10 1.68 10 1 10 C0.67 6.7 0.34 3.4 0 0 Z " fill="#B2B2F2" transform="translate(184,26)"/>
<path d="M0 0 C1.75189023 3.02299856 2.05623524 3.70195322 1.375 7.3125 C-0.08374494 11.22458872 -1.82500947 14.44751546 -4 18 C-5.35814777 13.9255567 -3.94745762 11.18531884 -2.5625 7.3125 C-2.31951172 6.61060547 -2.07652344 5.90871094 -1.82617188 5.18554688 C-1.2255056 3.45421468 -0.61380281 1.72671863 0 0 Z " fill="#DEBBD1" transform="translate(55,24)"/>
<path d="M0 0 C0.33 0 0.66 0 1 0 C1.51595007 8.94313454 1.51595007 8.94313454 -2 13 C-2.67188497 15.33183607 -3.33915417 17.66501142 -4 20 C-4.66 20.33 -5.32 20.66 -6 21 C-4.55613874 13.78069368 -2.42211826 6.94889267 0 0 Z " fill="#E6BECA" transform="translate(25,116)"/>
<path d="M0 0 C0.66 0 1.32 0 2 0 C1.32584613 5.2584002 -0.24265549 10.02638346 -2 15 C-2.33 15 -2.66 15 -3 15 C-3.0272415 13.58344207 -3.04650467 12.16672955 -3.0625 10.75 C-3.07410156 9.96109375 -3.08570313 9.1721875 -3.09765625 8.359375 C-3.00385306 6.09308998 -2.63241063 4.1711105 -2 2 C-1.34 2 -0.68 2 0 2 C0 1.34 0 0.68 0 0 Z " fill="#8B88E3" transform="translate(246,153)"/>
<path d="M0 0 C0.99 0.33 1.98 0.66 3 1 C3 1.66 3 2.32 3 3 C3.66 3 4.32 3 5 3 C5 6.63 5 10.26 5 14 C2.81385576 11.81385576 2.31743465 10.46120051 1.375 7.5625 C1.11460937 6.78003906 0.85421875 5.99757813 0.5859375 5.19140625 C0 3 0 3 0 0 Z " fill="#9897EF" transform="translate(144,47)"/>
<path d="M0 0 C2.375 -0.1875 2.375 -0.1875 5 0 C7 3 7 3 6.8125 5.125 C6.544375 5.74375 6.27625 6.3625 6 7 C5.01 7.33 4.02 7.66 3 8 C0 2.25 0 2.25 0 0 Z " fill="#3531E5" transform="translate(217,126)"/>
<path d="M0 0 C0.33 0 0.66 0 1 0 C0.85892253 1.45880109 0.71197585 2.91703551 0.5625 4.375 C0.48128906 5.18710938 0.40007812 5.99921875 0.31640625 6.8359375 C0 9 0 9 -1 11 C-1.66 11 -2.32 11 -3 11 C-3.33 12.98 -3.66 14.96 -4 17 C-4.33 17 -4.66 17 -5 17 C-4.46246904 10.81839396 -2.45417612 5.673142 0 0 Z " fill="#D7A6B8" transform="translate(84,79)"/>
<path d="M0 0 C0.99 0 1.98 0 3 0 C5.125 4.625 5.125 4.625 4 8 C3.01 7.01 2.02 6.02 1 5 C-0.485 7.475 -0.485 7.475 -2 10 C-3.39195915 5.82412255 -1.82323219 3.86525224 0 0 Z " fill="#DFCBE2" transform="translate(83,130)"/>
<path d="M0 0 C0.66 0 1.32 0 2 0 C1.55966813 5.19591612 1.11696661 8.66335081 -2 13 C-2.99 12.67 -3.98 12.34 -5 12 C-4.6875 10.0625 -4.6875 10.0625 -4 8 C-3.01 7.67 -2.02 7.34 -1 7 C-0.67 4.69 -0.34 2.38 0 0 Z " fill="#3D3BDF" transform="translate(255,120)"/>
<path d="M0 0 C0.66 0.99 1.32 1.98 2 3 C2.804375 3.7425 2.804375 3.7425 3.625 4.5 C5 6 5 6 5 9 C4.34 9 3.68 9 3 9 C3.33 10.98 3.66 12.96 4 15 C2.40626099 12.60939149 1.34702924 10.69171821 0.3125 8.0625 C0.04050781 7.39347656 -0.23148437 6.72445312 -0.51171875 6.03515625 C-1.0787676 3.67169662 -0.76024003 2.2807201 0 0 Z " fill="#8F8FE7" transform="translate(90,87)"/>
<path d="M0 0 C0.99 0.33 1.98 0.66 3 1 C4.98834962 5.39529916 5.19118486 9.22037853 5 14 C2.81385576 11.81385576 2.31743465 10.46120051 1.375 7.5625 C1.11460937 6.78003906 0.85421875 5.99757813 0.5859375 5.19140625 C0 3 0 3 0 0 Z " fill="#9F9FEF" transform="translate(155,79)"/>
<path d="M0 0 C0.33 0 0.66 0 1 0 C1.1799928 5.21979128 0.97094808 9.07262981 -1 14 C-0.01 14.33 0.98 14.66 2 15 C2 16.98 2 18.96 2 21 C1.34 20.01 0.68 19.02 0 18 C-0.66 17.34 -1.32 16.68 -2 16 C-2.77703544 10.38934703 -1.80317693 5.29683222 0 0 Z " fill="#B796D2" transform="translate(87,66)"/>
<path d="M0 0 C0.33 0 0.66 0 1 0 C0.52013969 5.56890517 -0.29915181 10.67067568 -2 16 C-2.66 16 -3.32 16 -4 16 C-4.33 16.66 -4.66 17.32 -5 18 C-5.33 16.68 -5.66 15.36 -6 14 C-5.01 14 -4.02 14 -3 14 C-3 11.36 -3 8.72 -3 6 C-2.01 5.67 -1.02 5.34 0 5 C0 3.35 0 1.7 0 0 Z " fill="#6767EA" transform="translate(287,26)"/>
<path d="M0 0 C0.66 0.33 1.32 0.66 2 1 C-2.62 5.62 -7.24 10.24 -12 15 C-12.66 14.67 -13.32 14.34 -14 14 C-9.72706118 8.76564995 -5.18419194 4.32893185 0 0 Z " fill="#4D4D4E" transform="translate(966,24)"/>
<path d="M0 0 C2 3 2 3 1.8125 6.0625 C1 9 1 9 -2 11 C-2.66 11.99 -3.32 12.98 -4 14 C-4.25 8.375 -4.25 8.375 -2 5 C-1.34 5 -0.68 5 0 5 C0 3.35 0 1.7 0 0 Z " fill="#6D6DE4" transform="translate(271,75)"/>
<path d="M0 0 C0.99 0.33 1.98 0.66 3 1 C2.51572038 5.26166067 1.80256591 7.74902355 -1 11 C-1.66 11.99 -2.32 12.98 -3 14 C-3 11.69 -3 9.38 -3 7 C-2.34 6.67 -1.68 6.34 -1 6 C-0.34227572 2.97065509 -0.34227572 2.97065509 0 0 Z " fill="#5C5DEC" transform="translate(243,28)"/>
<path d="M0 0 C1.76462683 3.08809695 2 4.23312136 2 8 C0.35 8.66 -1.3 9.32 -3 10 C-2.25 2.25 -2.25 2.25 0 0 Z " fill="#4236CE" transform="translate(108,15)"/>
<path d="M0 0 C0.99 0.33 1.98 0.66 3 1 C3.984375 3.8359375 3.984375 3.8359375 4.75 7.375 C5.01296875 8.53773437 5.2759375 9.70046875 5.546875 10.8984375 C6 14 6 14 5 17 C4.16080602 14.73117913 3.32848276 12.46022973 2.5 10.1875 C2.26152344 9.54490234 2.02304688 8.90230469 1.77734375 8.24023438 C0.72931254 5.35066261 0 3.09923939 0 0 Z " fill="#A7A7EF" transform="translate(160,93)"/>
<path d="M0 0 C1.45879493 2.79655447 2.65385052 5.58256419 3.6875 8.5625 C3.95949219 9.32691406 4.23148438 10.09132813 4.51171875 10.87890625 C5 13 5 13 4 16 C4 15.34 4 14.68 4 14 C3.34 14 2.68 14 2 14 C0.02905192 9.07262981 -0.1799928 5.21979128 0 0 Z " fill="#A9A8EF" transform="translate(202,80)"/>
<path d="M0 0 C0.66 0.99 1.32 1.98 2 3 C1.26299754 6.53761179 0.60744131 8.46402237 -2.125 10.875 C-2.74375 11.24625 -3.3625 11.6175 -4 12 C-3.67 9.36 -3.34 6.72 -3 4 C-2.01 4 -1.02 4 0 4 C0 2.68 0 1.36 0 0 Z " fill="#3834DD" transform="translate(93,62)"/>
<path d="M0 0 C0.99 0.33 1.98 0.66 3 1 C3.73046875 3.06640625 3.73046875 3.06640625 4.1875 5.5625 C4.34605469 6.38878906 4.50460938 7.21507812 4.66796875 8.06640625 C4.77753906 8.70449219 4.88710937 9.34257813 5 10 C5.33 10 5.66 10 6 10 C6 12.31 6 14.62 6 17 C4.0990238 14.1485357 3.03734101 11.70289524 1.875 8.5 C1.52179688 7.5409375 1.16859375 6.581875 0.8046875 5.59375 C0 3 0 3 0 0 Z " fill="#AAAAF1" transform="translate(138,30)"/>
<path d="M0 0 C2.60895459 2.60895459 3.10973264 4.98266538 4.1875 8.5 C4.55230469 9.6653125 4.91710937 10.830625 5.29296875 12.03125 C6 15 6 15 5 17 C1.74288723 11.22125154 0.30656385 6.62177926 0 0 Z " fill="#A8A8EA" transform="translate(130,78)"/>
<path d="M0 0 C0.33 0 0.66 0 1 0 C0.14285714 8.57142857 0.14285714 8.57142857 -2 12 C-3.41377341 9.36095629 -4.37240135 6.92879371 -5 4 C-4.01 4.33 -3.02 4.66 -2 5 C-1.34 3.35 -0.68 1.7 0 0 Z " fill="#3B37D6" transform="translate(240,168)"/>
<path d="M0 0 C0.66 0 1.32 0 2 0 C1.37240135 2.92879371 0.41377341 5.36095629 -1 8 C-2.32 7.34 -3.64 6.68 -5 6 C-5 5.34 -5 4.68 -5 4 C-4.360625 3.71125 -3.72125 3.4225 -3.0625 3.125 C-0.84793921 2.17176549 -0.84793921 2.17176549 0 0 Z " fill="#4142E7" transform="translate(104,96)"/>
<path d="M0 0 C0.99 0.66 1.98 1.32 3 2 C3.1875 4.625 3.1875 4.625 3 7 C1.68 6.67 0.36 6.34 -1 6 C-1.625 4.125 -1.625 4.125 -2 2 C-1.34 1.34 -0.68 0.68 0 0 Z " fill="#3D39DB" transform="translate(116,42)"/>
<path d="M0 0 C-0.33 2.31 -0.66 4.62 -1 7 C-1.66 7 -2.32 7 -3 7 C-3.99 5.02 -4.98 3.04 -6 1 C-1.125 0 -1.125 0 0 0 Z " fill="#D37D91" transform="translate(63,140)"/>
<path d="M0 0 C1.32 0.99 2.64 1.98 4 3 C3.34 5.97 2.68 8.94 2 12 C1.67 12 1.34 12 1 12 C0.67 8.04 0.34 4.08 0 0 Z " fill="#4A4ADE" transform="translate(260,98)"/>
<path d="M0 0 C1.98 0.495 1.98 0.495 4 1 C4.66 3.97 5.32 6.94 6 10 C4.10786631 7.61426621 2.97608217 5.92824652 2 3 C1.34 4.65 0.68 6.3 0 8 C-0.33 8 -0.66 8 -1 8 C-1.125 2.25 -1.125 2.25 0 0 Z " fill="#B59FDF" transform="translate(106,13)"/>
<path d="M0 0 C0.33 0 0.66 0 1 0 C1.84098656 4.01804691 2.05404945 7.01803543 1 11 C0.01 11 -0.98 11 -2 11 C-1.85892253 9.54119891 -1.71197585 8.08296449 -1.5625 6.625 C-1.48128906 5.81289062 -1.40007812 5.00078125 -1.31640625 4.1640625 C-1 2 -1 2 0 0 Z " fill="#4D4DD9" transform="translate(227,74)"/>
<path d="M0 0 C1.06671952 3.20015856 0.94845472 4.88544294 0.5625 8.1875 C0.46066406 9.08855469 0.35882813 9.98960938 0.25390625 10.91796875 C0.17011719 11.60503906 0.08632812 12.29210937 0 13 C-0.99 12.67 -1.98 12.34 -3 12 C-2.40075776 7.80530429 -1.42500059 3.99000166 0 0 Z " fill="#5A48CE" transform="translate(89,68)"/>
<path d="M0 0 C-0.33 1.98 -0.66 3.96 -1 6 C-1.99 6.33 -2.98 6.66 -4 7 C-4.33 5.35 -4.66 3.7 -5 2 C-2 0 -2 0 0 0 Z " fill="#332EE6" transform="translate(110,23)"/>
<path d="M0 0 C0.66 0 1.32 0 2 0 C3.625 3.25 3.625 3.25 5 7 C4.1875 9.4375 4.1875 9.4375 3 11 C2.49384702 9.73160474 1.99530901 8.46016898 1.5 7.1875 C1.2215625 6.47980469 0.943125 5.77210937 0.65625 5.04296875 C0 3 0 3 0 0 Z " fill="#A4A4EF" transform="translate(134,19)"/>
<path d="M0 0 C1.29227198 4.19988393 0.50255809 6.86796526 -1 11 C-2.625 12.9375 -2.625 12.9375 -4 14 C-3.21824485 9.15311808 -1.60155722 4.6233633 0 0 Z " fill="#9F9EE9" transform="translate(219,95)"/>
<path d="M0 0 C0.66 0 1.32 0 2 0 C1.71640113 1.4391134 1.42278601 2.87625518 1.125 4.3125 C0.88136719 5.51326172 0.88136719 5.51326172 0.6328125 6.73828125 C0 9 0 9 -2 12 C-2.17835515 7.45194365 -1.99785435 4.1205746 0 0 Z " fill="#A3A3EB" transform="translate(283,42)"/>
<path d="M0 0 C1.98 0.495 1.98 0.495 4 1 C2.68 3.64 1.36 6.28 0 9 C-0.33 9 -0.66 9 -1 9 C-0.67 6.03 -0.34 3.06 0 0 Z " fill="#D07988" transform="translate(17,145)"/>
<path d="M0 0 C0.99 0.495 0.99 0.495 2 1 C2 1.99 2 2.98 2 4 C2.99 4.33 3.98 4.66 5 5 C5.6875 7.0625 5.6875 7.0625 6 9 C4.68 9 3.36 9 2 9 C1.34 6.03 0.68 3.06 0 0 Z " fill="#9797E9" transform="translate(98,114)"/>
<path d="M0 0 C0.99 0 1.98 0 3 0 C2.34 2.64 1.68 5.28 1 8 C0.01 7.67 -0.98 7.34 -2 7 C-1.34 4.69 -0.68 2.38 0 0 Z " fill="#4241DC" transform="translate(258,111)"/>
<path d="M0 0 C3.00617269 3.00617269 2.59585316 5.82381598 3 10 C1.68 9.01 0.36 8.02 -1 7 C-0.67 4.69 -0.34 2.38 0 0 Z " fill="#8785E0" transform="translate(119,45)"/>
<path d="M0 0 C0.66 0.66 1.32 1.32 2 2 C1.34 2 0.68 2 0 2 C0.33 3.65 0.66 5.3 1 7 C-0.32 7.99 -1.64 8.98 -3 10 C-3.36923077 4.58461538 -3.36923077 4.58461538 -1.5 1.625 C-1.005 1.08875 -0.51 0.5525 0 0 Z " fill="#D57685" transform="translate(14,159)"/>
<path d="M0 0 C0.66 0 1.32 0 2 0 C2.33 2.64 2.66 5.28 3 8 C2.01 8 1.02 8 0 8 C0 5.36 0 2.72 0 0 Z " fill="#8080E6" transform="translate(145,126)"/>
<path d="M0 0 C1.98 0.99 1.98 0.99 4 2 C4 5.3 4 8.6 4 12 C2.09681116 9.14521674 1.5380901 7.58058692 0.875 4.3125 C0.70742187 3.50425781 0.53984375 2.69601563 0.3671875 1.86328125 C0.24601562 1.24839844 0.12484375 0.63351563 0 0 Z " fill="#AAA9EE" transform="translate(94,102)"/>
<path d="M0 0 C1 3 1 3 0.22265625 5.04296875 C-0.16019531 5.75066406 -0.54304688 6.45835938 -0.9375 7.1875 C-1.31777344 7.90292969 -1.69804688 8.61835937 -2.08984375 9.35546875 C-2.54037109 10.16951172 -2.54037109 10.16951172 -3 11 C-4.3968009 6.80959731 -2.86445675 4.87233324 -1 1 C-0.67 0.67 -0.34 0.34 0 0 Z " fill="#CD90B2" transform="translate(53,38)"/>
<path d="M0 0 C0.66 0.33 1.32 0.66 2 1 C2.59355614 3.64860427 2.74209269 6.29197322 3 9 C2.67 8.34 2.34 7.68 2 7 C1.34 7 0.68 7 0 7 C-0.38133299 5.0085944 -0.71325582 3.00720923 -1 1 C-0.67 0.67 -0.34 0.34 0 0 Z " fill="#8C8AE7" transform="translate(167,109)"/>
<path d="M0 0 C0.66 0 1.32 0 2 0 C1.71640113 1.4391134 1.42278601 2.87625518 1.125 4.3125 C0.88136719 5.51326172 0.88136719 5.51326172 0.6328125 6.73828125 C0 9 0 9 -2 12 C-1.85904936 10.3745692 -1.71207913 8.74965949 -1.5625 7.125 C-1.48128906 6.22007813 -1.40007812 5.31515625 -1.31640625 4.3828125 C-1 2 -1 2 0 0 Z " fill="#A9A9ED" transform="translate(275,66)"/>
<path d="M0 0 C0.33 0 0.66 0 1 0 C1 2.64 1 5.28 1 8 C0.01 8.495 0.01 8.495 -1 9 C-1.66 9.99 -2.32 10.98 -3 12 C-2.49202991 7.6822542 -1.80317221 3.96697886 0 0 Z " fill="#AFAEEF" transform="translate(236,44)"/>
<path d="M0 0 C1.15957207 3.47871621 0.77456651 4.34219645 -0.4375 7.6875 C-0.72496094 8.49574219 -1.01242188 9.30398437 -1.30859375 10.13671875 C-1.65083984 11.05904297 -1.65083984 11.05904297 -2 12 C-3.24674659 8.25976024 -2.76679965 5.83399823 -2 2 C-1.34 1.34 -0.68 0.68 0 0 Z " fill="#A7A6E7" transform="translate(251,141)"/>
<path d="M0 0 C2.3773161 2.3773161 2.67028521 3.70285207 3 7 C2.34 7.66 1.68 8.32 1 9 C-1.09230769 4.56923077 -1.09230769 4.56923077 -0.625 1.6875 C-0.41875 1.130625 -0.2125 0.57375 0 0 Z " fill="#6564E7" transform="translate(115,154)"/>
<path d="M0 0 C0.66 0 1.32 0 2 0 C1.67 1.98 1.34 3.96 1 6 C0.01 6 -0.98 6 -2 6 C-2 4.68 -2 3.36 -2 2 C-1.34 2 -0.68 2 0 2 C0 1.34 0 0.68 0 0 Z " fill="#7975DE" transform="translate(246,153)"/>
<path d="M0 0 C0.99 0 1.98 0 3 0 C2.34 2.97 1.68 5.94 1 9 C0.67 9 0.34 9 0 9 C0 6.03 0 3.06 0 0 Z " fill="#DCA9B8" transform="translate(63,136)"/>
</svg>
